<?xml version="1.0" standalone="no"?>
<!DOCTYPE svg PUBLIC "-//W3C//DTD SVG 1.1//EN" "http://www.w3.org/Graphics/SVG/1.1/DTD/svg11.dtd" >
<svg>
<metadata>
Created by FontForge 20110222 at Wed Jun  4 15:46:42 2014
 By deploy user
Copyright (c) 1988, 1990, 1993, 2003 Linotype Library GmbH, www.linotype.com. All rights reserved. Copyright (c) 1988, 1990, 1993 Adobe Systems Incorporated. All Rights Reserved.
</metadata>
<defs>
<font id="HelveticaNeueLTPro-Hv" horiz-adv-x="296" >
  <font-face 
    font-family="HelveticaNeueLT Pro 65 Md"
    font-weight="750"
    font-stretch="normal"
    units-per-em="1000"
    panose-1="2 11 8 4 2 2 2 2 2 4"
    ascent="714"
    descent="-286"
    x-height="519"
    cap-height="714"
    bbox="-169 -234 1096 950"
    underline-thickness="50"
    underline-position="-50"
    unicode-range="U+000D-FB02"
  />
<missing-glyph horiz-adv-x="512" 
d="M222 117h56v67h-56v-67zM225 234h46q0 52 6 72q6 19 43 52q37 34 50 60t13 60q0 59 -35 95t-89 36q-56 0 -92 -34t-43 -103l50 -8q11 95 82 95q31 0 53.5 -24.5t22.5 -60.5q0 -20 -9.5 -37t-40.5 -46q-31 -31 -46 -59q-13 -25 -13 -81zM462 50h-412v617h412v-617z
M512 718h-512v-718h512v718z" />
    <glyph glyph-name=".notdef" horiz-adv-x="512" 
d="M222 117h56v67h-56v-67zM225 234h46q0 52 6 72q6 19 43 52q37 34 50 60t13 60q0 59 -35 95t-89 36q-56 0 -92 -34t-43 -103l50 -8q11 95 82 95q31 0 53.5 -24.5t22.5 -60.5q0 -20 -9.5 -37t-40.5 -46q-31 -31 -46 -59q-13 -25 -13 -81zM462 50h-412v617h412v-617z
M512 718h-512v-718h512v718z" />
    <glyph glyph-name=".null" horiz-adv-x="500" 
 />
    <glyph glyph-name=".null" horiz-adv-x="500" 
 />
    <glyph glyph-name="nonmarkingreturn" horiz-adv-x="333" 
 />
    <glyph glyph-name="CR" unicode="&#xd;" horiz-adv-x="0" 
 />
    <glyph glyph-name="space" unicode=" " horiz-adv-x="315" 
 />
    <glyph glyph-name="exclam" unicode="!" 
d="M55 0v186h186v-186h-186zM236 714v-177l-46 -301h-83l-46 301v177h175z" />
    <glyph glyph-name="quotedbl" unicode="&#x22;" horiz-adv-x="500" 
d="M62 354v360h144v-360h-144zM294 354v360h144v-360h-144z" />
    <glyph glyph-name="numbersign" unicode="#" horiz-adv-x="630" 
d="M369 405h-81l-15 -110h81zM531 295v-105h-77l-26 -190h-115l26 190h-81l-26 -190h-115l26 190h-74v105h89l15 110h-74v105h89l26 187h115l-26 -187h81l26 187h115l-26 -187h62v-105h-77l-15 -110h62z" />
    <glyph glyph-name="dollar" unicode="$" horiz-adv-x="630" 
d="M345 819v-91q110 -7 184 -65.5t74 -167.5h-186q4 67 -72 86v-136q12 -4 37.5 -10t36.5 -9q44 -12 76.5 -26.5t64.5 -38t49 -59.5t17 -82q0 -80 -41 -133.5t-101.5 -76t-138.5 -25.5v-90h-47v90q-61 2 -112 17t-92.5 44t-65 77.5t-23.5 112.5h186q5 -97 107 -108v157
q-53 14 -63 17q-45 13 -76.5 26.5t-64.5 37t-50.5 59.5t-17.5 83q0 56 23.5 99t63.5 68t86.5 38.5t98.5 15.5v90h47zM298 457v128q-34 0 -60 -16t-26 -49q0 -22 21.5 -36t64.5 -27zM345 272v-143q39 3 67 19.5t28 49.5q0 27 -24 44t-71 30z" />
    <glyph glyph-name="percent" unicode="%" horiz-adv-x="1019" 
d="M719 183q0 -22 1 -35.5t5.5 -34t17 -31.5t31.5 -11q54 0 54 112t-54 112q-19 0 -31.5 -11t-17 -31.5t-5.5 -34t-1 -35.5zM602 183q0 85 44.5 138.5t127.5 53.5q86 0 128.5 -51t42.5 -141t-41.5 -141t-129.5 -51q-87 0 -129.5 52t-42.5 140zM75 514q0 85 44.5 138.5
t127.5 53.5q86 0 128.5 -51t42.5 -141t-41.5 -141t-129.5 -51q-87 0 -129.5 52t-42.5 140zM359 -27h-99l404 751h99zM192 514q0 -22 1 -35.5t5.5 -34t17 -31.5t31.5 -11q54 0 54 112t-54 112q-19 0 -31.5 -11t-17 -31.5t-5.5 -34t-1 -35.5z" />
    <glyph glyph-name="ampersand" unicode="&#x26;" horiz-adv-x="722" 
d="M334 466q32 19 49 39t17 49q0 26 -16.5 40.5t-43.5 14.5q-24 0 -40 -15t-16 -38q0 -11 2.5 -21t9 -20t10.5 -16t14 -17.5t14 -15.5zM527 0l-50 60q-93 -75 -205 -75q-98 0 -168 61t-70 157q0 133 162 208q-63 70 -63 137q0 81 61.5 131t142.5 50q83 0 142.5 -51
t59.5 -134q0 -116 -122 -177l74 -89q21 32 26 70h146q-11 -101 -79 -174l150 -174h-207zM387 174l-106 125q-32 -15 -57.5 -40t-25.5 -54q0 -36 28.5 -59t65.5 -23q40 0 95 51z" />
    <glyph glyph-name="quotesingle" unicode="'" 
d="M76 354v360h144v-360h-144z" />
    <glyph glyph-name="parenleft" unicode="(" 
d="M161 729h144q-114 -233 -110 -455q-4 -215 110 -448h-144q-65 126 -94 225t-31 223q2 128 31 228t94 227z" />
    <glyph glyph-name="parenright" unicode=")" 
d="M-9 729h144q65 -127 94 -227t31 -228q-2 -124 -31 -223t-94 -225h-144q114 233 110 448q4 222 -110 455z" />
    <glyph glyph-name="asterisk" unicode="*" horiz-adv-x="444" 
d="M297 499l77 -103l-79 -59l-75 107l-74 -107l-78 58l79 104l-122 38l31 93l116 -44v128h99v-128l116 44l31 -93z" />
    <glyph glyph-name="plus" unicode="+" horiz-adv-x="600" 
d="M228 325v181h144v-181h180v-144h-180v-181h-144v181h-180v144h180z" />
    <glyph glyph-name="comma" unicode="," horiz-adv-x="316" 
d="M65 0v186h186v-165q0 -51 -18 -89.5t-47.5 -59.5t-59 -32t-61.5 -14v80q40 11 58.5 32.5t23.5 61.5h-82z" />
    <glyph glyph-name="hyphen" unicode="-" horiz-adv-x="407" 
d="M359 200h-311v144h311v-144z" />
    <glyph glyph-name="period" unicode="." horiz-adv-x="316" 
d="M65 0v186h186v-186h-186z" />
    <glyph glyph-name="slash" unicode="/" horiz-adv-x="407" 
d="M-9 -15l269 744h156l-269 -744h-156z" />
    <glyph glyph-name="zero" unicode="0" horiz-adv-x="630" 
d="M310 -9q-71 0 -125 29.5t-85.5 80.5t-47 113.5t-15.5 134.5q0 99 26 176.5t89.5 129t157.5 51.5q74 0 130 -29t89 -79.5t49 -113t16 -135.5q0 -72 -16 -134.5t-49 -113.5t-89 -80.5t-130 -29.5zM315 129q32 0 55 15t34 35t17.5 54t7.5 57t1 59q0 29 -1 48.5t-4 48
t-10.5 47.5t-19.5 37.5t-32.5 28t-47.5 9.5q-38 0 -63 -20t-35 -57t-13 -67.5t-3 -74.5q0 -28 1 -48.5t4.5 -48.5t11 -47.5t19.5 -38t32 -28t46 -9.5z" />
    <glyph glyph-name="one" unicode="1" horiz-adv-x="630" 
d="M272 428h-167v125q83 -3 141.5 32.5t64.5 111.5h141v-697h-180v428z" />
    <glyph glyph-name="two" unicode="2" horiz-adv-x="630" 
d="M591 0h-559q2 139 109 232q27 23 56.5 43.5t72.5 46.5t53 32q45 30 68 56.5t23 59.5q0 41 -24 64t-66 23q-116 0 -116 -141h-159q-8 129 68 209.5t206 80.5q111 0 186 -57.5t75 -163.5q0 -20 -3.5 -38.5t-7 -32.5t-13.5 -30t-16 -25.5t-21.5 -24t-22 -20.5t-27 -20
t-27 -18.5t-30.5 -19t-30 -18.5q-73 -43 -126 -94h331v-144z" />
    <glyph glyph-name="three" unicode="3" horiz-adv-x="630" 
d="M257 308v118q7 0 22 -1t23 0q113 0 113 73q0 33 -28 51.5t-72 18.5q-52 0 -80.5 -25.5t-27.5 -73.5h-159q2 113 76.5 175t189.5 62q66 0 122 -17.5t97 -63t41 -112.5q0 -49 -25.5 -88.5t-71.5 -47.5v-2q119 -31 119 -160q0 -75 -42.5 -127t-104.5 -74.5t-135 -22.5
q-62 0 -114.5 16t-92.5 47.5t-61 82.5t-17 116h159q-3 -124 125 -124q47 0 80 22t33 64q0 95 -124 95q-15 0 -45 -2z" />
    <glyph glyph-name="four" unicode="4" horiz-adv-x="630" 
d="M163 299h178v225h-2zM506 299h91v-144h-91v-155h-170v155h-305v159l312 383h163v-398z" />
    <glyph glyph-name="five" unicode="5" horiz-adv-x="630" 
d="M22 216h170q0 -39 35 -63t77 -24q51 0 83.5 31t32.5 81q0 52 -29 83.5t-81 31.5q-78 0 -111 -53h-154l68 394h440v-144h-309l-26 -127h2q50 50 136 50q108 0 171 -59.5t63 -167.5q0 -124 -79.5 -191t-206.5 -67q-267 0 -282 225z" />
    <glyph glyph-name="six" unicode="6" horiz-adv-x="630" 
d="M585 516h-159q-9 36 -35 54q-20 11 -49 11q-67 0 -101.5 -54t-37.5 -123h2q45 74 163 74q95 0 160.5 -67t65.5 -163q0 -119 -80 -188t-199 -69q-74 0 -129.5 29.5t-87 80.5t-46.5 112t-15 131q0 157 77.5 259.5t227.5 102.5q96 0 162 -49t81 -141zM207 237
q0 -46 30.5 -77t79.5 -31q52 0 85 31.5t33 75.5q0 51 -31.5 84t-87.5 33q-47 0 -78 -33.5t-31 -82.5z" />
    <glyph glyph-name="seven" unicode="7" horiz-adv-x="630" 
d="M60 543v154h507v-137q-25 -21 -70.5 -87t-78.5 -138q-71 -155 -73 -335h-183q3 70 25.5 160.5t66.5 174.5q32 72 76 133t64 73v2h-334z" />
    <glyph glyph-name="eight" unicode="8" horiz-adv-x="630" 
d="M316 581q-46 0 -76 -19.5t-30 -60.5q0 -43 30.5 -62.5t75.5 -19.5q44 0 75.5 20t31.5 62q0 40 -31 60t-76 20zM29 205q0 62 37.5 108.5t96.5 56.5v2q-50 12 -77 50.5t-27 91.5q0 65 41.5 110.5t98 63.5t119.5 18q47 0 90.5 -11t81.5 -33t61 -60.5t23 -88.5
q0 -49 -28.5 -90.5t-74.5 -50.5v-2q61 -12 96 -56t35 -109q0 -45 -16.5 -81.5t-44 -60.5t-64.5 -40.5t-77 -24t-83 -7.5q-55 0 -103.5 11t-91.5 34.5t-68 67t-25 101.5zM317 314q-49 0 -83.5 -26t-34.5 -74q0 -49 34 -73.5t83 -24.5t82.5 24t33.5 74q0 47 -32.5 73.5
t-82.5 26.5z" />
    <glyph glyph-name="nine" unicode="9" horiz-adv-x="630" 
d="M46 181h159q5 -30 34 -49q25 -16 60 -16q119 0 129 177h-2q-44 -75 -156 -75q-103 0 -168 67t-65 170q0 109 78.5 180t188.5 71q98 0 164.5 -47t96 -122t29.5 -172q0 -78 -17 -143.5t-52 -118.5t-95.5 -82.5t-140.5 -29.5q-98 0 -161.5 47.5t-81.5 142.5zM308 343
q53 0 84.5 32.5t31.5 81.5q0 48 -31.5 79.5t-85.5 31.5q-47 0 -79 -32.5t-32 -76.5q0 -50 30 -83t82 -33z" />
    <glyph glyph-name="colon" unicode=":" horiz-adv-x="316" 
d="M65 0v186h186v-186h-186zM251 519v-186h-186v186h186z" />
    <glyph glyph-name="semicolon" unicode=";" horiz-adv-x="316" 
d="M251 519v-186h-186v186h186zM65 0v186h186v-165q0 -51 -18 -89.5t-47.5 -59.5t-59 -32t-61.5 -14v80q40 11 58.5 32.5t23.5 61.5h-82z" />
    <glyph glyph-name="less" unicode="&#x3c;" horiz-adv-x="600" 
d="M554 -8l-508 190v142l508 190v-154l-307 -106v-2l307 -106v-154z" />
    <glyph glyph-name="equal" unicode="=" horiz-adv-x="600" 
d="M552 201v-144h-504v144h504zM552 449v-144h-504v144h504z" />
    <glyph glyph-name="greater" unicode="&#x3e;" horiz-adv-x="600" 
d="M46 -8v154l307 106v2l-307 106v154l508 -190v-142z" />
    <glyph glyph-name="question" unicode="?" horiz-adv-x="574" 
d="M182 0v186h186v-186h-186zM206 480h-175q2 117 73 183t189 66q102 0 176 -53.5t74 -150.5q0 -66 -28 -101.5t-95 -78.5q-41 -27 -53.5 -46.5t-12.5 -62.5h-158v50q0 36 14 65t28.5 42.5t38.5 31.5q51 34 64 51q16 21 16 48q0 28 -18.5 44.5t-46.5 16.5q-81 0 -86 -86v-19
z" />
    <glyph glyph-name="at" unicode="@" horiz-adv-x="800" 
d="M517 488l9 48h94l-44 -238q-6 -13 -6 -34t13 -21q37 0 65 38.5t28 113.5q0 117 -72 179.5t-190 62.5q-123 0 -197.5 -78.5t-74.5 -202.5q0 -129 80 -204t209 -75q111 0 189 59h98q-110 -151 -295 -151q-162 0 -275 105.5t-113 265.5q0 158 111.5 265.5t270.5 107.5
q139 0 243.5 -84.5t104.5 -217.5q0 -65 -20 -117.5t-49.5 -83.5t-65 -52t-63.5 -28.5t-49 -7.5q-60 0 -62 49h-2q-37 -50 -96 -50q-65 0 -115 54t-50 127q0 92 56 160t145 68q79 0 123 -58zM386 252q46 0 74 30.5t28 74.5q0 36 -21.5 58.5t-57.5 22.5q-42 0 -70.5 -31.5
t-28.5 -72.5q0 -36 20 -59t56 -23z" />
    <glyph glyph-name="A" unicode="A" horiz-adv-x="704" 
d="M-9 0l267 714h189l267 -714h-194l-44 128h-249l-45 -128h-191zM351 516l-81 -250h162l-79 250h-2z" />
    <glyph glyph-name="B" unicode="B" horiz-adv-x="722" 
d="M250 570v-137h144q29 0 52.5 16.5t23.5 51.5q0 36 -21.5 52.5t-54.5 16.5h-144zM64 0v714h334q50 1 93 -6.5t81.5 -26t61 -56t22.5 -90.5q0 -47 -25.5 -84.5t-68.5 -59.5q57 -17 90 -62.5t33 -106.5q0 -222 -278 -222h-343zM250 313v-164h149q100 0 100 80q0 84 -100 84
h-149z" />
    <glyph glyph-name="C" unicode="C" horiz-adv-x="759" 
d="M724 459h-186q-8 53 -46 81.5t-98 28.5q-84 0 -125 -61.5t-41 -150.5t41 -150.5t125 -61.5q65 0 102 34.5t42 97.5h186q-8 -136 -98 -214t-228 -78q-159 0 -257.5 106.5t-98.5 265.5t98.5 265.5t257.5 106.5q125 0 223.5 -74t102.5 -196z" />
    <glyph glyph-name="D" unicode="D" horiz-adv-x="759" 
d="M250 554v-394h88q106 2 151.5 48t45.5 153q0 193 -197 193h-88zM64 0v714h307q164 0 257 -94t93 -260q0 -174 -92.5 -267t-257.5 -93h-307z" />
    <glyph glyph-name="E" unicode="E" horiz-adv-x="685" 
d="M64 0v714h569v-149h-383v-125h350v-144h-350v-136h393v-160h-579z" />
    <glyph glyph-name="F" unicode="F" horiz-adv-x="611" 
d="M64 0v714h526v-149h-340v-146h294v-144h-294v-275h-186z" />
    <glyph glyph-name="G" unicode="G" horiz-adv-x="778" 
d="M723 391v-391h-120l-11 78q-33 -48 -88.5 -70.5t-110.5 -22.5q-159 0 -257.5 106.5t-98.5 265.5t98.5 265.5t257.5 106.5q57 0 111 -15.5t100 -45.5t76 -81t36 -116h-186q-5 45 -44 71.5t-97 26.5q-84 0 -125 -61.5t-41 -150.5t41 -150.5t125 -61.5q68 0 112 29.5
t52 78.5h-130v138h300z" />
    <glyph glyph-name="H" unicode="H" horiz-adv-x="741" 
d="M62 0v714h186v-260h245v260h186v-714h-186v294h-245v-294h-186z" />
    <glyph glyph-name="I" unicode="I" horiz-adv-x="315" 
d="M64 0v714h186v-714h-186z" />
    <glyph glyph-name="J" unicode="J" horiz-adv-x="593" 
d="M528 714v-488q0 -241 -250 -241q-135 0 -192.5 70t-57.5 198v31h175v-66q0 -73 72 -73q34 0 50.5 21.5t16.5 71.5v476h186z" />
    <glyph glyph-name="K" unicode="K" horiz-adv-x="741" 
d="M64 0v714h186v-274l235 274h231l-264 -281l297 -433h-231l-192 300l-76 -80v-220h-186z" />
    <glyph glyph-name="L" unicode="L" horiz-adv-x="611" 
d="M64 0v714h186v-554h333v-160h-519z" />
    <glyph glyph-name="M" unicode="M" horiz-adv-x="926" 
d="M65 0v714h274l123 -476h2l123 476h274v-714h-175v542h-2l-150 -542h-142l-150 542h-2v-542h-175z" />
    <glyph glyph-name="N" unicode="N" horiz-adv-x="741" 
d="M62 0v714h191l248 -440h2v440h175v-714h-191l-248 445h-2v-445h-175z" />
    <glyph glyph-name="O" unicode="O" horiz-adv-x="778" 
d="M223 357q0 -89 41 -150.5t125 -61.5t125 61.5t41 150.5t-41 150.5t-125 61.5t-125 -61.5t-41 -150.5zM37 357q0 161 94.5 266.5t257.5 105.5t257.5 -105.5t94.5 -266.5t-94.5 -266.5t-257.5 -105.5t-257.5 105.5t-94.5 266.5z" />
    <glyph glyph-name="P" unicode="P" horiz-adv-x="685" 
d="M250 565v-183h125q100 0 100 89q0 94 -100 94h-125zM64 0v714h339q111 0 184.5 -56t73.5 -174q0 -246 -258 -246h-153v-238h-186z" />
    <glyph glyph-name="Q" unicode="Q" horiz-adv-x="778" 
d="M370 204l83 87l70 -68q32 54 32 134q0 89 -41 150.5t-125 61.5t-125 -61.5t-41 -150.5t41 -150.5t125 -61.5q24 0 37 4zM738 14l-85 -88l-98 96q-71 -37 -166 -37q-163 0 -257.5 105.5t-94.5 266.5t94.5 266.5t257.5 105.5t257.5 -105.5t94.5 -266.5q0 -157 -89 -260z
" />
    <glyph glyph-name="R" unicode="R" horiz-adv-x="722" 
d="M250 565v-161h156q86 0 86 84q0 38 -26.5 57.5t-67.5 19.5h-148zM64 0v714h364q49 0 92 -11.5t79.5 -34.5t57.5 -63t21 -92q0 -61 -28.5 -109.5t-83.5 -69.5v-2q93 -24 104 -171q0 -2 2.5 -33t4.5 -50t8 -43.5t15 -34.5h-184q-7 11 -11.5 33t-7 50.5t-2.5 30.5
q-2 33 -6 54t-14.5 45t-31.5 35.5t-52 11.5h-141v-260h-186z" />
    <glyph glyph-name="S" unicode="S" horiz-adv-x="667" 
d="M23 240h186q3 -60 37 -85.5t98 -25.5q47 0 80.5 18t33.5 55q0 18 -10 32t-34 24.5t-42.5 16.5t-59 16t-59.5 15q-45 13 -76.5 26.5t-64.5 37t-50.5 59.5t-17.5 83q0 74 46 125t109.5 71.5t135.5 20.5q117 0 201.5 -59t84.5 -171h-186q2 44 -32.5 65t-82.5 21
q-36 0 -63 -14.5t-27 -46.5q0 -16 10.5 -28t33.5 -21t44 -15t59 -15t60 -15q44 -12 76.5 -26.5t64.5 -38t49 -59.5t17 -82q0 -65 -26 -113t-71.5 -74.5t-98.5 -39t-115 -12.5q-86 0 -153.5 24.5t-112 84t-44.5 146.5z" />
    <glyph glyph-name="T" unicode="T" horiz-adv-x="648" 
d="M630 714v-160h-213v-554h-186v554h-213v160h612z" />
    <glyph glyph-name="U" unicode="U" horiz-adv-x="741" 
d="M681 714v-419q0 -157 -75.5 -233.5t-235.5 -76.5t-235.5 76.5t-75.5 233.5v419h186v-430q0 -71 29 -105t96 -34t96 34t29 105v430h186z" />
    <glyph glyph-name="V" unicode="V" horiz-adv-x="648" 
d="M659 714l-231 -714h-214l-225 714h194l140 -531h2l140 531h194z" />
    <glyph glyph-name="W" unicode="W" horiz-adv-x="963" 
d="M963 714l-197 -714h-186l-98 492h-2l-98 -492h-189l-193 714h186l101 -522h2l105 522h175l105 -522h2l101 522h186z" />
    <glyph glyph-name="X" unicode="X" horiz-adv-x="704" 
d="M-8 0l254 375l-233 339h219l120 -222l127 222h212l-231 -339l252 -375h-226l-134 238l-146 -238h-214z" />
    <glyph glyph-name="Y" unicode="Y" horiz-adv-x="667" 
d="M687 714l-260 -448v-266h-186v266l-260 448h211l142 -290l142 290h211z" />
    <glyph glyph-name="Z" unicode="Z" horiz-adv-x="667" 
d="M24 0v152l366 402h-344v160h584v-144l-375 -410h388v-160h-619z" />
    <glyph glyph-name="bracketleft" unicode="[" horiz-adv-x="370" 
d="M69 -174v903h294v-144h-135v-615h135v-144h-294z" />
    <glyph glyph-name="backslash" unicode="\" horiz-adv-x="407" 
d="M147 729l269 -744h-156l-269 744h156z" />
    <glyph glyph-name="bracketright" unicode="]" horiz-adv-x="370" 
d="M301 729v-903h-294v144h135v615h-135v144h294z" />
    <glyph glyph-name="asciicircum" unicode="^" horiz-adv-x="600" 
d="M206 332h-159l162 365h182l162 -365h-160l-93 238z" />
    <glyph glyph-name="underscore" unicode="_" horiz-adv-x="500" 
d="M500 -125h-500v50h500v-50z" />
    <glyph glyph-name="grave" unicode="`" 
d="M145 725l97 -149h-120l-157 149h180z" />
    <glyph glyph-name="a" unicode="a" horiz-adv-x="593" 
d="M209 359h-159q4 95 81 139q63 36 165 36q40 0 72.5 -4t65.5 -15t55 -30t35.5 -50.5t13.5 -74.5v-227q0 -92 20 -133h-171q-2 5 -10 49q-60 -64 -171 -64q-79 0 -128 40t-49 117q0 40 15 70t36 46t56.5 28t63 16t69 10t62.5 10q24 6 34.5 15.5t10.5 32.5q0 27 -25.5 40.5
t-56.5 13.5q-73 0 -85 -65zM199 149q0 -59 71 -59q60 0 83.5 35.5t20.5 117.5q-14 -9 -54.5 -17t-50.5 -11q-70 -16 -70 -66z" />
    <glyph glyph-name="b" unicode="b" horiz-adv-x="630" 
d="M325 404q-41 0 -72.5 -33t-31.5 -106q0 -150 103 -150q52 0 77 44.5t25 105.5q0 57 -24.5 98t-76.5 41zM57 0v714h170v-252h2q53 72 148 72q104 0 161.5 -77t57.5 -186q0 -77 -23 -139.5t-77 -104.5t-132 -42q-92 0 -143 75h-2v-60h-162z" />
    <glyph glyph-name="c" unicode="c" horiz-adv-x="593" 
d="M560 329h-165q0 32 -25 53.5t-58 21.5q-110 0 -110 -153q0 -56 25.5 -96t75.5 -40q84 0 97 89h165q-12 -103 -83.5 -161t-177.5 -58q-118 0 -195 73.5t-77 192.5q0 125 74 204t198 79q103 0 175 -53.5t81 -151.5z" />
    <glyph glyph-name="d" unicode="d" horiz-adv-x="630" 
d="M571 714v-714h-162v60h-2q-51 -75 -143 -75q-78 0 -132 42t-77 104.5t-23 139.5q0 109 57.5 186t161.5 77q95 0 148 -71h2v251h170zM306 404q-53 0 -78.5 -41t-25.5 -98q0 -61 25.5 -105.5t78.5 -44.5q101 0 101 145q0 62 -24.5 103t-76.5 41z" />
    <glyph glyph-name="e" unicode="e" horiz-adv-x="611" 
d="M583 218h-381q2 -55 32.5 -86.5t83.5 -31.5q33 0 59.5 14.5t37.5 42.5h159q-23 -86 -94 -129t-164 -43q-129 0 -206.5 73.5t-77.5 202.5q0 118 81.5 195.5t198.5 77.5q135 0 206 -89t65 -227zM202 313h211q-2 45 -30.5 75.5t-70.5 30.5q-44 0 -73 -28.5t-37 -77.5z" />
    <glyph glyph-name="f" unicode="f" horiz-adv-x="370" 
d="M94 0v409h-82v110h82q0 111 43.5 153t153.5 42q1 0 82 -3v-120q-24 3 -46 3q-33 0 -48 -9.5t-15 -42.5v-23h102v-110h-102v-409h-170z" />
    <glyph glyph-name="g" unicode="g" horiz-adv-x="611" 
d="M559 519v-456q0 -32 -3.5 -58.5t-18.5 -63.5t-40.5 -62t-76.5 -43t-120 -18q-50 0 -89 6.5t-76 24t-60 51.5t-30 84h170q6 -33 29 -45q22 -11 62 -11q55 0 72 31t17 90v49h-2q-49 -76 -138 -76q-113 0 -170.5 71t-57.5 187q0 108 61 181t167 73q94 0 139 -80h2v65h163z
M398 273q0 56 -25 93.5t-77 37.5t-75.5 -37.5t-23.5 -92.5q0 -51 25 -86.5t73 -35.5q51 0 77 34.5t26 86.5z" />
    <glyph glyph-name="h" unicode="h" horiz-adv-x="630" 
d="M57 0v714h170v-266h2q20 39 65 62.5t93 23.5q187 0 187 -201v-333h-170v251v52q0 91 -85 91q-45 0 -68.5 -32.5t-23.5 -78.5v-283h-170z" />
    <glyph glyph-name="i" unicode="i" 
d="M233 714v-130h-170v130h170zM63 0v519h170v-519h-170z" />
    <glyph glyph-name="j" unicode="j" 
d="M233 714v-130h-170v130h170zM233 519v-519q0 -96 -40 -135t-132 -39h-86v138h34q28 1 41 11.5t13 36.5v507h170z" />
    <glyph glyph-name="k" unicode="k" horiz-adv-x="593" 
d="M57 0v714h170v-368l155 173h197l-190 -196l214 -323h-205l-127 209l-44 -43v-166h-170z" />
    <glyph glyph-name="l" unicode="l" 
d="M63 0v714h170v-714h-170z" />
    <glyph glyph-name="m" unicode="m" horiz-adv-x="926" 
d="M57 0v519h165v-71h2q24 40 63 63t86 23q114 0 151 -84q62 84 162 84q47 0 82 -14.5t54 -35.5t30 -53t14 -59t3 -62v-310h-170v305q0 42 -19 65.5t-52 23.5q-50 0 -65 -33.5t-15 -106.5v-254h-170v295q0 99 -64 99q-47 0 -67 -31.5t-20 -109.5v-253h-170z" />
    <glyph glyph-name="n" unicode="n" horiz-adv-x="630" 
d="M57 0v519h165v-71h2q23 39 69 62.5t94 23.5q187 0 187 -201v-333h-170v251v52q0 91 -85 91q-45 0 -68.5 -32.5t-23.5 -78.5v-283h-170z" />
    <glyph glyph-name="o" unicode="o" horiz-adv-x="611" 
d="M32 259q0 118 76.5 196.5t196.5 78.5t197 -78.5t77 -196.5t-77 -196t-197 -78t-196.5 78t-76.5 196zM202 259q0 -59 24.5 -101.5t78.5 -42.5q55 0 79.5 42.5t24.5 101.5t-24.5 102t-79.5 43q-54 0 -78.5 -43t-24.5 -102z" />
    <glyph glyph-name="p" unicode="p" horiz-adv-x="630" 
d="M57 -174v693h162v-60h2q51 75 143 75q78 0 132 -42t77 -104.5t23 -139.5q0 -109 -57.5 -186t-161.5 -77q-95 0 -148 71h-2v-230h-170zM325 404q-41 0 -72.5 -33t-31.5 -106q0 -150 103 -150q52 0 77 44.5t25 105.5q0 57 -24.5 98t-76.5 41z" />
    <glyph glyph-name="q" unicode="q" horiz-adv-x="630" 
d="M571 519v-693h-170v231h-2q-53 -72 -148 -72q-104 0 -161.5 77t-57.5 186q0 77 23 139.5t77 104.5t132 42q92 0 143 -75h2v60h162zM202 254q0 -57 24.5 -98t76.5 -41q41 0 72.5 33.5t31.5 106.5q0 62 -23 105.5t-78 43.5q-53 0 -78.5 -44.5t-25.5 -105.5z" />
    <glyph glyph-name="r" unicode="r" horiz-adv-x="426" 
d="M63 0v519h165v-91h2q38 101 156 101q23 0 40 -4v-155q-33 10 -65 10q-60 0 -94 -35.5t-34 -87.5v-257h-170z" />
    <glyph glyph-name="s" unicode="s" horiz-adv-x="556" 
d="M27 171h162q0 -37 28 -58q24 -18 63 -18q29 0 54.5 14t25.5 41q0 12 -5 20.5t-17 14.5t-18.5 8.5t-23.5 6.5t-19 5q-16 4 -54 12t-57 13t-48.5 17.5t-44 27.5t-26 40.5t-11.5 59.5q0 44 22 76.5t58.5 49.5t75.5 25t81 8q46 0 85 -7.5t74.5 -25.5t56.5 -52.5t23 -82.5
h-157q0 32 -22 45q-19 13 -54 13q-73 0 -73 -39q0 -14 11 -24.5t35.5 -18.5t42.5 -12t54.5 -11t48.5 -9q48 -10 79.5 -36.5t42 -52.5t10.5 -51q0 -66 -39 -109t-92.5 -59.5t-117.5 -16.5q-68 0 -121 15.5t-92 58.5t-41 112z" />
    <glyph glyph-name="t" unicode="t" horiz-adv-x="389" 
d="M370 519v-110h-105v-236q0 -29 15 -39.5t46 -10.5q8 0 22 1t22 1v-125q-12 0 -44 -2.5t-49 -2.5q-108 0 -145 38.5t-37 144.5v231h-86v110h86v157h170v-157h105z" />
    <glyph glyph-name="u" unicode="u" horiz-adv-x="630" 
d="M573 519v-519h-165v71h-2q-24 -39 -68 -62.5t-90 -23.5q-106 0 -149 56.5t-43 165.5v312h170v-301q0 -50 20.5 -71.5t63.5 -21.5q35 0 64 27t29 89v278h170z" />
    <glyph glyph-name="v" unicode="v" horiz-adv-x="537" 
d="M540 519l-174 -519h-196l-173 519h177l95 -343h2l96 343h173z" />
    <glyph glyph-name="w" unicode="w" horiz-adv-x="833" 
d="M833 519l-162 -519h-172l-82 345h-2l-81 -345h-172l-162 519h172l87 -336h2l74 336h162l76 -335h2l85 335h173z" />
    <glyph glyph-name="x" unicode="x" horiz-adv-x="537" 
d="M-7 0l180 272l-165 247h188l73 -124l73 124h180l-162 -244l184 -275h-188l-90 150l-85 -150h-188z" />
    <glyph glyph-name="y" unicode="y" horiz-adv-x="537" 
d="M545 519l-205 -565q-28 -80 -75.5 -104t-141.5 -24h-80v138h59q30 0 49 15.5t19 42.5q0 10 -5.5 30t-11.5 37t-15 40.5t-11 28.5l-134 361h180l98 -338h2l98 338h174z" />
    <glyph glyph-name="z" unicode="z" horiz-adv-x="537" 
d="M22 0v132l259 257h-238v130h454v-129l-259 -260h278v-130h-494z" />
    <glyph glyph-name="braceleft" unicode="{" horiz-adv-x="370" 
d="M356 729v-120h-41q-53 0 -53 -65v-164q0 -88 -115 -96v-3q21 -2 36 -5t36 -13t32 -32t11 -55v-165q0 -65 53 -65h41v-120h-118q-61 0 -98 36t-37 112v173q0 29 -18.5 46t-35.5 20.5t-35 3.5v120q18 0 35 3t35.5 18t18.5 40v188q0 143 135 143h118z" />
    <glyph glyph-name="bar" unicode="|" horiz-adv-x="222" 
d="M39 -214v1000h144v-1000h-144z" />
    <glyph glyph-name="braceright" unicode="}" horiz-adv-x="370" 
d="M14 -174v120h41q53 0 53 65v165q0 33 11 55t32 32t36 13t36 5v3q-115 8 -115 96v164q0 65 -53 65h-41v120h118q135 0 135 -143v-188q0 -25 18.5 -40t35.5 -18t35 -3v-120q-18 0 -35 -3.5t-35.5 -20.5t-18.5 -46v-173q0 -76 -37 -112t-98 -36h-118z" />
    <glyph glyph-name="asciitilde" unicode="~" horiz-adv-x="600" 
d="M495 363l36 -130q-27 -41 -55 -63.5t-70 -22.5q-45 0 -102 33q-59 35 -115 35q-51 0 -84 -72l-36 130q42 86 125 86q38 0 111 -32q7 -3 21.5 -9.5t23 -10t20 -8t20.5 -6.5t17 -2q19 0 37 13t25.5 23t25.5 36z" />
    <glyph glyph-name="Euro" horiz-adv-x="630" 
d="M604 656l-51 -134q-76 49 -141 49q-94 0 -132 -101h251l-33 -85h-234q-2 -26 -2 -35q0 -2 0.5 -6.5t1 -12.5t0.5 -16h209l-36 -85h-157q27 -107 136 -107q74 0 153 61v-154q-71 -38 -160 -38q-126 0 -202 76q-66 64 -84 162h-88l33 85h44v16q-1 3 -1 10v11q0 15 2 33h-78
l33 85h57q26 104 95 166q79 70 201 70q85 0 183 -50z" />
    <glyph glyph-name="Euro" unicode="&#x20ac;" horiz-adv-x="630" 
d="M604 656l-51 -134q-76 49 -141 49q-94 0 -132 -101h251l-33 -85h-234q-2 -26 -2 -35q0 -2 0.5 -6.5t1 -12.5t0.5 -16h209l-36 -85h-157q27 -107 136 -107q74 0 153 61v-154q-71 -38 -160 -38q-126 0 -202 76q-66 64 -84 162h-88l33 85h44v16q-1 3 -1 10v11q0 15 2 33h-78
l33 85h57q26 104 95 166q79 70 201 70q85 0 183 -50z" />
    <glyph glyph-name="uni00A0" unicode="&#xa0;" horiz-adv-x="315" 
 />
    <glyph glyph-name="exclamdown" unicode="&#xa1;" 
d="M241 547v-186h-186v186h186zM61 -167v177l46 301h83l46 -301v-177h-175z" />
    <glyph glyph-name="cent" unicode="&#xa2;" horiz-adv-x="630" 
d="M299 -105v92q-111 6 -180.5 78.5t-69.5 185.5q0 119 67.5 196.5t182.5 85.5v79h46v-79q93 -6 158 -59.5t74 -144.5h-165q-1 28 -20 48t-47 24v-283q61 11 72 86h165q-12 -96 -76.5 -153.5t-160.5 -63.5v-92h-46zM299 118v283q-80 -19 -80 -150q0 -49 20 -87t60 -46z" />
    <glyph glyph-name="sterling" unicode="&#xa3;" horiz-adv-x="630" 
d="M119 -15l-68 102q109 73 109 148q0 38 -13 65h-106v105h67q-43 58 -43 113q0 70 39.5 119.5t96.5 70.5t124 21q121 0 192 -64t67 -184h-165q2 43 -18 73.5t-63 30.5q-39 0 -63 -20.5t-24 -58.5q0 -20 13 -51t27 -50h119v-105h-89q7 -18 7 -42q0 -69 -69 -122l2 -2
q27 19 75 19q17 0 57.5 -9.5t60.5 -9.5q31 0 49 10t40 35l69 -123q-69 -71 -174 -71q-32 0 -104 19.5t-109 19.5q-46 0 -106 -39z" />
    <glyph glyph-name="currency" unicode="&#xa4;" horiz-adv-x="630" 
d="M194 350q0 -60 35 -97.5t86 -37.5t86 37.5t35 97.5t-35 97.5t-86 37.5t-86 -37.5t-35 -97.5zM118 88l-60 60l44 45q-52 69 -52 157q0 83 49 154l-45 44l60 60l45 -44q69 51 156 51t156 -51l43 44l60 -60l-44 -44q50 -69 50 -154t-50 -154l44 -44l-60 -60l-44 44
q-69 -51 -155 -51q-85 0 -152 48z" />
    <glyph glyph-name="yen" unicode="&#xa5;" horiz-adv-x="630" 
d="M630 714l-149 -301h103v-105h-156l-20 -41v-31h176v-105h-176v-131h-186v131h-176v105h176v31l-20 41h-156v105h104l-150 301h186l128 -301h2l128 301h186z" />
    <glyph glyph-name="brokenbar" unicode="&#xa6;" horiz-adv-x="222" 
d="M183 661v-250h-144v250h144zM39 -89v250h144v-250h-144z" />
    <glyph glyph-name="section" unicode="&#xa7;" horiz-adv-x="630" 
d="M544 534h-147q0 32 -21 52q-20 18 -53 18q-25 0 -43 -13.5t-18 -38.5q0 -17 14 -31.5t26 -21.5t33 -16l166 -81q47 -27 71 -57.5t24 -78.5q0 -53 -27 -94.5t-76 -55.5q50 -42 50 -110q0 -91 -66 -139.5t-161 -48.5q-105 0 -170 50t-65 154h147q0 -34 25 -59
q23 -20 60 -20q31 0 50.5 16.5t19.5 45.5q0 27 -36 51t-87 44.5t-102 45t-87 65t-36 92.5q0 112 105 152q-38 44 -38 100q0 55 34.5 96t83 59.5t101.5 18.5q96 0 158.5 -50.5t64.5 -144.5zM220 275l187 -90q33 9 40 31q21 45 -47 81l-151 70q-16 8 -28 8q-38 0 -42 -46
q-1 -13 5 -23.5t13 -15.5t23 -15z" />
    <glyph glyph-name="dieresis" unicode="&#xa8;" 
d="M-33 588v125h150v-125h-150zM330 588h-150v125h150v-125z" />
    <glyph glyph-name="copyright" unicode="&#xa9;" horiz-adv-x="800" 
d="M499 303h94q-9 -74 -59.5 -115.5t-118.5 -41.5q-92 0 -150 61t-58 153q0 94 56 154.5t150 60.5q70 0 117 -39.5t59 -113.5h-90q-12 58 -86 58q-42 0 -65.5 -31.5t-23.5 -86.5q0 -52 25 -86.5t66 -34.5q80 0 84 62zM400 80q108 0 184.5 78.5t76.5 198.5t-76.5 198.5
t-184.5 78.5q-110 0 -185.5 -78.5t-75.5 -198.5t75.5 -198.5t185.5 -78.5zM400 -15q-102 0 -188.5 42.5t-142 129t-55.5 200.5t55.5 200.5t142 129t188.5 42.5q75 0 144.5 -25.5t123.5 -71.5t86 -117.5t32 -157.5t-32 -157.5t-86 -117.5t-123.5 -71.5t-144.5 -25.5z" />
    <glyph glyph-name="ordfeminine" unicode="&#xaa;" horiz-adv-x="377" 
d="M132 592h-118q1 67 52 93q43 21 122 21q41 0 70 -4t54.5 -15.5t38.5 -35t13 -58.5v-139q0 -55 13 -92h-129q-6 18 -7 29q-30 -19 -56 -29q-25 -9 -55 -9q-130 0 -130 94q0 73 70 99q24 9 77.5 15.5t63.5 8.5q29 6 29 29q0 13 -16.5 20t-36.5 7q-48 0 -55 -34zM239 501v19
q-17 -6 -68 -17q-46 -9 -46 -40q0 -14 13.5 -22t33.5 -8q67 0 67 68z" />
    <glyph glyph-name="guillemotleft" unicode="&#xab;" horiz-adv-x="444" 
d="M240 194v152l159 128v-137l-86 -67l86 -66v-137zM45 194v152l159 128v-137l-86 -67l86 -66v-137z" />
    <glyph glyph-name="logicalnot" unicode="&#xac;" horiz-adv-x="600" 
d="M408 120v185h-360v144h504v-329h-144z" />
    <glyph glyph-name="uni00AD" unicode="&#xad;" horiz-adv-x="407" 
d="M359 200h-311v144h311v-144z" />
    <glyph glyph-name="registered" unicode="&#xae;" horiz-adv-x="800" 
d="M400 80q108 0 184.5 78.5t76.5 198.5t-76.5 198.5t-184.5 78.5q-110 0 -185.5 -78.5t-75.5 -198.5t75.5 -198.5t185.5 -78.5zM400 -15q-102 0 -188.5 42.5t-142 129t-55.5 200.5t55.5 200.5t142 129t188.5 42.5q75 0 144.5 -25.5t123.5 -71.5t86 -117.5t32 -157.5
t-32 -157.5t-86 -117.5t-123.5 -71.5t-144.5 -25.5zM346 395h71q29 0 42 10.5t13 40.5q0 42 -75 42h-51v-93zM346 324v-168h-98v403h151q85 0 128 -27.5t43 -95.5q0 -101 -115 -106l103 -174h-95l-92 168h-25z" />
    <glyph glyph-name="macron" unicode="&#xaf;" 
d="M311 607h-325v86h325v-86z" />
    <glyph glyph-name="degree" unicode="&#xb0;" horiz-adv-x="400" 
d="M200 457q36 0 58 25.5t22 63.5t-22 63.5t-58 25.5t-58 -25.5t-22 -63.5t22 -63.5t58 -25.5zM40 546q0 66 47 113t113 47t113 -47t47 -113t-47 -113t-113 -47t-113 47t-47 113z" />
    <glyph glyph-name="plusminus" unicode="&#xb1;" horiz-adv-x="600" 
d="M48 -12v144h504v-144h-504zM228 417v101h144v-101h180v-144h-180v-101h-144v101h-180v144h180z" />
    <glyph glyph-name="twosuperior" unicode="&#xb2;" horiz-adv-x="378" 
d="M371 278h-365q0 91 71 146q25 20 118 73q59 35 59 62q0 24 -15.5 38t-40.5 14q-66 0 -68 -84h-123q-2 84 46 130q49 49 144 49q80 0 131 -35.5t51 -102.5q0 -26 -9 -47t-28.5 -38t-37 -28t-48.5 -27q-27 -13 -38 -19t-23 -15.5t-18 -20.5h194v-95z" />
    <glyph glyph-name="threesuperior" unicode="&#xb3;" horiz-adv-x="378" 
d="M167 455v82q6 0 15.5 -0.5t13.5 -0.5q24 0 45 9t21 28q0 17 -17.5 27.5t-39.5 10.5q-28 0 -45.5 -15t-16.5 -41h-125q2 74 51.5 112.5t134.5 38.5q78 0 130.5 -30t52.5 -94q0 -31 -17.5 -53t-51.5 -27v-2q77 -10 77 -95q0 -68 -55 -102t-136 -34q-88 0 -141 35t-58 107
v23h125q0 -34 19 -52t54 -18q26 0 46.5 11t20.5 30q0 51 -74 51q-4 0 -13.5 -0.5t-15.5 -0.5z" />
    <glyph glyph-name="acute" unicode="&#xb4;" 
d="M142 725h180l-157 -149h-120z" />
    <glyph glyph-name="mu" unicode="&#xb5;" horiz-adv-x="630" 
d="M573 519v-519h-165v71h-2q-24 -39 -68 -62.5t-90 -23.5q-13 0 -22 6v-165h-170v693h170v-301q0 -50 20.5 -71.5t63.5 -21.5q35 0 64 27t29 89v278h170z" />
    <glyph glyph-name="paragraph" unicode="&#xb6;" horiz-adv-x="620" 
d="M206 -169v534q-108 0 -165.5 44.5t-57.5 126.5q0 100 64.5 139t181.5 39h314v-883h-120v793h-97v-793h-120z" />
    <glyph glyph-name="periodcentered" unicode="&#xb7;" horiz-adv-x="315" 
d="M65 286q0 38 27.5 65.5t65.5 27.5t65.5 -27.5t27.5 -65.5t-27.5 -65.5t-65.5 -27.5t-65.5 27.5t-27.5 65.5z" />
    <glyph glyph-name="cedilla" unicode="&#xb8;" 
d="M133 0h55l-40 -60l2 -2q16 5 40 5q33 0 59 -19.5t26 -60.5q0 -97 -128 -97q-66 0 -118 31l19 45q41 -19 82 -19q51 0 51 35q0 38 -43 38q-17 0 -40 -7l-22 19z" />
    <glyph glyph-name="onesuperior" unicode="&#xb9;" horiz-adv-x="378" 
d="M163 523h-109v90q128 0 134 84h100v-419h-125v245z" />
    <glyph glyph-name="ordmasculine" unicode="&#xba;" horiz-adv-x="387" 
d="M193 353q-91 0 -143 48t-52 128q0 81 52 129t143 48q92 0 144 -48t52 -129q0 -80 -52 -128t-144 -48zM193 448q37 0 54 25t17 56q0 32 -17 57t-54 25q-36 0 -53 -25t-17 -57q0 -31 17 -56t53 -25z" />
    <glyph glyph-name="guillemotright" unicode="&#xbb;" horiz-adv-x="444" 
d="M204 347v-152l-159 -128v137l86 67l-86 66v137zM399 347v-152l-159 -128v137l86 67l-86 66v137z" />
    <glyph glyph-name="onequarter" unicode="&#xbc;" horiz-adv-x="945" 
d="M624 179h106v123zM855 179h64v-90h-64v-89h-126v89h-199v99l203 231h122v-240zM135 523h-109v90q128 0 134 84h100v-419h-125v245zM298 -27h-99l411 751h99z" />
    <glyph glyph-name="onehalf" unicode="&#xbd;" horiz-adv-x="945" 
d="M922 0h-365q0 91 71 146q25 20 118 73q59 35 59 62q0 24 -15.5 38t-40.5 14q-66 0 -68 -84h-125q0 83 48 130q49 49 144 49q80 0 131 -35.5t51 -102.5q0 -26 -9 -47t-28.5 -38t-37 -28t-48.5 -27q-27 -13 -38 -19t-23 -15.5t-18 -20.5h194v-95zM124 523h-109v90
q128 0 134 84h100v-419h-125v245zM273 -27h-99l411 751h99z" />
    <glyph glyph-name="threequarters" unicode="&#xbe;" horiz-adv-x="945" 
d="M635 179h106v123zM866 179h64v-90h-64v-89h-126v89h-199v99l203 231h122v-240zM352 -27h-99l411 751h99zM177 453v82q6 0 15.5 -0.5t13.5 -0.5q24 0 45 9t21 30q0 17 -17.5 27.5t-39.5 10.5q-28 0 -45.5 -15t-16.5 -41h-125q2 74 51.5 112.5t134.5 38.5q78 0 130.5 -30
t52.5 -94q0 -31 -17.5 -53t-51.5 -27v-2q77 -10 77 -95q0 -68 -55 -102t-136 -34q-88 0 -141 35t-58 107v23h125q0 -34 19 -52t54 -18q26 0 46.5 11t20.5 30q0 49 -74 49q-4 0 -13.5 -0.5t-15.5 -0.5z" />
    <glyph glyph-name="questiondown" unicode="&#xbf;" horiz-adv-x="574" 
d="M392 547v-186h-186v186h186zM368 67h175q-2 -117 -73 -183t-189 -66q-102 0 -176 53t-74 151q0 66 28.5 102.5t94.5 77.5q41 28 53.5 46.5t12.5 62.5h158v-50q0 -36 -14 -65t-28.5 -42.5t-38.5 -31.5q-6 -4 -19.5 -13.5t-19.5 -14t-16 -13.5t-14 -16.5t-7.5 -18.5
t-3.5 -23q0 -28 18.5 -44.5t46.5 -16.5q81 0 86 86v19z" />
    <glyph glyph-name="Agrave" unicode="&#xc0;" horiz-adv-x="704" 
d="M-9 0l267 714h189l267 -714h-194l-44 128h-249l-45 -128h-191zM351 516l-81 -250h162l-79 250h-2zM336 911l97 -149h-120l-157 149h180z" />
    <glyph glyph-name="Aacute" unicode="&#xc1;" horiz-adv-x="704" 
d="M-9 0l267 714h189l267 -714h-194l-44 128h-249l-45 -128h-191zM351 516l-81 -250h162l-79 250h-2zM366 911h180l-157 -149h-120z" />
    <glyph glyph-name="Acircumflex" unicode="&#xc2;" horiz-adv-x="704" 
d="M-9 0l267 714h189l267 -714h-194l-44 128h-249l-45 -128h-191zM351 516l-81 -250h162l-79 250h-2zM352 842l-60 -80h-128l112 149h152l112 -149h-128z" />
    <glyph glyph-name="Atilde" unicode="&#xc3;" horiz-adv-x="704" 
d="M-9 0l267 714h189l267 -714h-194l-44 128h-249l-45 -128h-191zM351 516l-81 -250h162l-79 250h-2zM474 904h71q-7 -56 -36.5 -91.5t-82.5 -35.5q-33 0 -81 18t-64 18q-31 0 -44 -45h-71q7 54 39 95t82 41q31 0 80 -20q48 -21 65 -21q30 0 42 41z" />
    <glyph glyph-name="Adieresis" unicode="&#xc4;" horiz-adv-x="704" 
d="M-9 0l267 714h189l267 -714h-194l-44 128h-249l-45 -128h-191zM351 516l-81 -250h162l-79 250h-2zM171 774v125h150v-125h-150zM534 774h-150v125h150v-125z" />
    <glyph glyph-name="Aring" unicode="&#xc5;" horiz-adv-x="704" 
d="M-9 0l267 714h189l267 -714h-194l-44 128h-249l-45 -128h-191zM351 516l-81 -250h162l-79 250h-2zM352 794q22 0 37 15t15 37q0 23 -15 37.5t-37 14.5t-37 -14.5t-15 -37.5q0 -22 15 -37t37 -15zM352 742q-46 -3 -77.5 29t-29.5 75q0 47 30.5 75.5t76.5 28.5
q47 0 77 -28.5t30 -75.5q0 -45 -30.5 -74.5t-76.5 -29.5z" />
    <glyph glyph-name="AE" unicode="&#xc6;" horiz-adv-x="1019" 
d="M-14 0l334 714h648v-149h-328v-125h306v-144h-306v-136h337v-160h-517v128h-218l-58 -128h-198zM428 565l-130 -299h162v299h-32z" />
    <glyph glyph-name="Ccedilla" unicode="&#xc7;" horiz-adv-x="759" 
d="M724 459h-186q-8 53 -46 81.5t-98 28.5q-84 0 -125 -61.5t-41 -150.5t41 -150.5t125 -61.5q65 0 102 34.5t42 97.5h186q-6 -102 -59 -172.5t-141 -100.5q-58 -18 -117 -19l-30 -45l2 -2q16 5 40 5q33 0 59 -19.5t26 -60.5q0 -97 -128 -97q-66 0 -118 31l19 45
q41 -19 82 -19q51 0 51 35q0 38 -43 38q-17 0 -40 -7l-22 19l49 79q-57 6 -103 27q-98 43 -153.5 134.5t-55.5 208.5q0 159 98.5 265.5t257.5 106.5q125 0 223.5 -74t102.5 -196z" />
    <glyph glyph-name="Egrave" unicode="&#xc8;" horiz-adv-x="685" 
d="M64 0v714h569v-149h-383v-125h350v-144h-350v-136h393v-160h-579zM355 911l97 -149h-120l-157 149h180z" />
    <glyph glyph-name="Eacute" unicode="&#xc9;" horiz-adv-x="685" 
d="M64 0v714h569v-149h-383v-125h350v-144h-350v-136h393v-160h-579zM375 911h180l-157 -149h-120z" />
    <glyph glyph-name="Ecircumflex" unicode="&#xca;" horiz-adv-x="685" 
d="M64 0v714h569v-149h-383v-125h350v-144h-350v-136h393v-160h-579zM346 842l-60 -80h-128l112 149h152l112 -149h-128z" />
    <glyph glyph-name="Edieresis" unicode="&#xcb;" horiz-adv-x="685" 
d="M64 0v714h569v-149h-383v-125h350v-144h-350v-136h393v-160h-579zM168 774v125h150v-125h-150zM531 774h-150v125h150v-125z" />
    <glyph glyph-name="Igrave" unicode="&#xcc;" horiz-adv-x="315" 
d="M64 0v714h186v-714h-186zM152 911l97 -149h-120l-157 149h180z" />
    <glyph glyph-name="Iacute" unicode="&#xcd;" horiz-adv-x="315" 
d="M64 0v714h186v-714h-186zM162 911h180l-157 -149h-120z" />
    <glyph glyph-name="Icircumflex" unicode="&#xce;" horiz-adv-x="315" 
d="M64 0v714h186v-714h-186zM157 842l-60 -80h-128l112 149h152l112 -149h-128z" />
    <glyph glyph-name="Idieresis" unicode="&#xcf;" horiz-adv-x="315" 
d="M64 0v714h186v-714h-186zM-24 774v125h150v-125h-150zM339 774h-150v125h150v-125z" />
    <glyph glyph-name="Eth" unicode="&#xd0;" horiz-adv-x="759" 
d="M64 0v296h-72v144h72v274h307q164 0 257 -94t93 -260q0 -174 -92.5 -267t-257.5 -93h-307zM250 554v-114h158v-144h-158v-136h88q106 2 151.5 48t45.5 153q0 193 -197 193h-88z" />
    <glyph glyph-name="Ntilde" unicode="&#xd1;" horiz-adv-x="741" 
d="M62 0v714h191l248 -440h2v440h175v-714h-191l-248 445h-2v-445h-175zM486 904h71q-7 -56 -36.5 -91.5t-82.5 -35.5q-33 0 -81 18t-64 18q-31 0 -44 -45h-71q7 54 39 95t82 41q31 0 80 -20q48 -21 65 -21q30 0 42 41z" />
    <glyph glyph-name="Ograve" unicode="&#xd2;" horiz-adv-x="778" 
d="M223 357q0 -89 41 -150.5t125 -61.5t125 61.5t41 150.5t-41 150.5t-125 61.5t-125 -61.5t-41 -150.5zM37 357q0 161 94.5 266.5t257.5 105.5t257.5 -105.5t94.5 -266.5t-94.5 -266.5t-257.5 -105.5t-257.5 105.5t-94.5 266.5zM365 911l97 -149h-120l-157 149h180z" />
    <glyph glyph-name="Oacute" unicode="&#xd3;" horiz-adv-x="778" 
d="M223 357q0 -89 41 -150.5t125 -61.5t125 61.5t41 150.5t-41 150.5t-125 61.5t-125 -61.5t-41 -150.5zM37 357q0 161 94.5 266.5t257.5 105.5t257.5 -105.5t94.5 -266.5t-94.5 -266.5t-257.5 -105.5t-257.5 105.5t-94.5 266.5zM411 911h180l-157 -149h-120z" />
    <glyph glyph-name="Ocircumflex" unicode="&#xd4;" horiz-adv-x="778" 
d="M223 357q0 -89 41 -150.5t125 -61.5t125 61.5t41 150.5t-41 150.5t-125 61.5t-125 -61.5t-41 -150.5zM37 357q0 161 94.5 266.5t257.5 105.5t257.5 -105.5t94.5 -266.5t-94.5 -266.5t-257.5 -105.5t-257.5 105.5t-94.5 266.5zM389 842l-60 -80h-128l112 149h152l112 -149
h-128z" />
    <glyph glyph-name="Otilde" unicode="&#xd5;" horiz-adv-x="778" 
d="M223 357q0 -89 41 -150.5t125 -61.5t125 61.5t41 150.5t-41 150.5t-125 61.5t-125 -61.5t-41 -150.5zM37 357q0 161 94.5 266.5t257.5 105.5t257.5 -105.5t94.5 -266.5t-94.5 -266.5t-257.5 -105.5t-257.5 105.5t-94.5 266.5zM507 904h71q-7 -56 -36.5 -91.5t-82.5 -35.5
q-33 0 -81 18t-64 18q-31 0 -44 -45h-71q7 54 39 95t82 41q31 0 80 -20q48 -21 65 -21q30 0 42 41z" />
    <glyph glyph-name="Odieresis" unicode="&#xd6;" horiz-adv-x="778" 
d="M223 357q0 -89 41 -150.5t125 -61.5t125 61.5t41 150.5t-41 150.5t-125 61.5t-125 -61.5t-41 -150.5zM37 357q0 161 94.5 266.5t257.5 105.5t257.5 -105.5t94.5 -266.5t-94.5 -266.5t-257.5 -105.5t-257.5 105.5t-94.5 266.5zM210 774v125h150v-125h-150zM573 774h-150
v125h150v-125z" />
    <glyph glyph-name="multiply" unicode="&#xd7;" horiz-adv-x="600" 
d="M198 253l-144 144l102 102l144 -144l144 144l102 -102l-144 -144l144 -144l-102 -102l-144 144l-144 -144l-102 102z" />
    <glyph glyph-name="Oslash" unicode="&#xd8;" horiz-adv-x="778" 
d="M693 747l58 -50l-87 -95q77 -98 77 -245q0 -161 -94.5 -266.5t-257.5 -105.5q-134 0 -221 72l-89 -97l-57 50l92 101q-77 97 -77 246q0 161 94.5 266.5t257.5 105.5q132 0 222 -72zM537 462l-253 -277q43 -40 105 -40q84 0 125 61.5t41 150.5q0 59 -18 105zM241 251
l254 278q-40 40 -106 40q-84 0 -125 -61.5t-41 -150.5q0 -58 18 -106z" />
    <glyph glyph-name="Ugrave" unicode="&#xd9;" horiz-adv-x="741" 
d="M681 714v-419q0 -157 -75.5 -233.5t-235.5 -76.5t-235.5 76.5t-75.5 233.5v419h186v-430q0 -71 29 -105t96 -34t96 34t29 105v430h186zM352 911l97 -149h-120l-157 149h180z" />
    <glyph glyph-name="Uacute" unicode="&#xda;" horiz-adv-x="741" 
d="M681 714v-419q0 -157 -75.5 -233.5t-235.5 -76.5t-235.5 76.5t-75.5 233.5v419h186v-430q0 -71 29 -105t96 -34t96 34t29 105v430h186zM402 911h180l-157 -149h-120z" />
    <glyph glyph-name="Ucircumflex" unicode="&#xdb;" horiz-adv-x="741" 
d="M681 714v-419q0 -157 -75.5 -233.5t-235.5 -76.5t-235.5 76.5t-75.5 233.5v419h186v-430q0 -71 29 -105t96 -34t96 34t29 105v430h186zM372 842l-60 -80h-128l112 149h152l112 -149h-128z" />
    <glyph glyph-name="Udieresis" unicode="&#xdc;" horiz-adv-x="741" 
d="M681 714v-419q0 -157 -75.5 -233.5t-235.5 -76.5t-235.5 76.5t-75.5 233.5v419h186v-430q0 -71 29 -105t96 -34t96 34t29 105v430h186zM188 774v125h150v-125h-150zM551 774h-150v125h150v-125z" />
    <glyph glyph-name="Yacute" unicode="&#xdd;" horiz-adv-x="667" 
d="M687 714l-260 -448v-266h-186v266l-260 448h211l142 -290l142 290h211zM369 911h180l-157 -149h-120z" />
    <glyph glyph-name="Thorn" unicode="&#xde;" horiz-adv-x="685" 
d="M250 473v-183h125q100 0 100 89q0 94 -100 94h-125zM64 714h186v-92h153q111 0 184.5 -56t73.5 -174q0 -246 -258 -246h-153v-146h-186v714z" />
    <glyph glyph-name="germandbls" unicode="&#xdf;" horiz-adv-x="630" 
d="M57 0v502q0 99 63 163t188 64q99 0 171.5 -49.5t72.5 -145.5q0 -46 -23 -84t-64 -53v-2q58 -12 92.5 -62.5t34.5 -112.5q0 -102 -64 -163.5t-167 -61.5q-37 0 -84 5v129q20 -4 43 -4q48 0 75 30t27 79q0 114 -143 105v101q47 -4 80.5 15t33.5 65q0 38 -21.5 58.5
t-57.5 20.5q-24 0 -40.5 -6.5t-26 -16.5t-14 -28.5t-5.5 -34t-1 -42.5v-471h-170z" />
    <glyph glyph-name="agrave" unicode="&#xe0;" horiz-adv-x="593" 
d="M209 359h-159q4 95 81 139q63 36 165 36q40 0 72.5 -4t65.5 -15t55 -30t35.5 -50.5t13.5 -74.5v-227q0 -92 20 -133h-171q-2 5 -10 49q-60 -64 -171 -64q-79 0 -128 40t-49 117q0 40 15 70t36 46t56.5 28t63 16t69 10t62.5 10q24 6 34.5 15.5t10.5 32.5q0 27 -25.5 40.5
t-56.5 13.5q-73 0 -85 -65zM199 149q0 -59 71 -59q60 0 83.5 35.5t20.5 117.5q-14 -9 -54.5 -17t-50.5 -11q-70 -16 -70 -66zM321 725l97 -149h-120l-157 149h180z" />
    <glyph glyph-name="aacute" unicode="&#xe1;" horiz-adv-x="593" 
d="M209 359h-159q4 95 81 139q63 36 165 36q40 0 72.5 -4t65.5 -15t55 -30t35.5 -50.5t13.5 -74.5v-227q0 -92 20 -133h-171q-2 5 -10 49q-60 -64 -171 -64q-79 0 -128 40t-49 117q0 40 15 70t36 46t56.5 28t63 16t69 10t62.5 10q24 6 34.5 15.5t10.5 32.5q0 27 -25.5 40.5
t-56.5 13.5q-73 0 -85 -65zM199 149q0 -59 71 -59q60 0 83.5 35.5t20.5 117.5q-14 -9 -54.5 -17t-50.5 -11q-70 -16 -70 -66zM327 725h180l-157 -149h-120z" />
    <glyph glyph-name="acircumflex" unicode="&#xe2;" horiz-adv-x="593" 
d="M209 359h-159q4 95 81 139q63 36 165 36q40 0 72.5 -4t65.5 -15t55 -30t35.5 -50.5t13.5 -74.5v-227q0 -92 20 -133h-171q-2 5 -10 49q-60 -64 -171 -64q-79 0 -128 40t-49 117q0 40 15 70t36 46t56.5 28t63 16t69 10t62.5 10q24 6 34.5 15.5t10.5 32.5q0 27 -25.5 40.5
t-56.5 13.5q-73 0 -85 -65zM199 149q0 -59 71 -59q60 0 83.5 35.5t20.5 117.5q-14 -9 -54.5 -17t-50.5 -11q-70 -16 -70 -66zM298 656l-60 -80h-128l112 149h152l112 -149h-128z" />
    <glyph glyph-name="atilde" unicode="&#xe3;" horiz-adv-x="593" 
d="M209 359h-159q4 95 81 139q63 36 165 36q40 0 72.5 -4t65.5 -15t55 -30t35.5 -50.5t13.5 -74.5v-227q0 -92 20 -133h-171q-2 5 -10 49q-60 -64 -171 -64q-79 0 -128 40t-49 117q0 40 15 70t36 46t56.5 28t63 16t69 10t62.5 10q24 6 34.5 15.5t10.5 32.5q0 27 -25.5 40.5
t-56.5 13.5q-73 0 -85 -65zM199 149q0 -59 71 -59q60 0 83.5 35.5t20.5 117.5q-14 -9 -54.5 -17t-50.5 -11q-70 -16 -70 -66zM417 718h71q-7 -56 -36.5 -91.5t-82.5 -35.5q-33 0 -81 18t-64 18q-31 0 -44 -45h-71q7 54 39 95t82 41q31 0 80 -20q48 -21 65 -21q30 0 42 41z
" />
    <glyph glyph-name="adieresis" unicode="&#xe4;" horiz-adv-x="593" 
d="M209 359h-159q4 95 81 139q63 36 165 36q40 0 72.5 -4t65.5 -15t55 -30t35.5 -50.5t13.5 -74.5v-227q0 -92 20 -133h-171q-2 5 -10 49q-60 -64 -171 -64q-79 0 -128 40t-49 117q0 40 15 70t36 46t56.5 28t63 16t69 10t62.5 10q24 6 34.5 15.5t10.5 32.5q0 27 -25.5 40.5
t-56.5 13.5q-73 0 -85 -65zM199 149q0 -59 71 -59q60 0 83.5 35.5t20.5 117.5q-14 -9 -54.5 -17t-50.5 -11q-70 -16 -70 -66zM117 588v125h150v-125h-150zM480 588h-150v125h150v-125z" />
    <glyph glyph-name="aring" unicode="&#xe5;" horiz-adv-x="593" 
d="M209 359h-159q4 95 81 139q63 36 165 36q40 0 72.5 -4t65.5 -15t55 -30t35.5 -50.5t13.5 -74.5v-227q0 -92 20 -133h-171q-2 5 -10 49q-60 -64 -171 -64q-79 0 -128 40t-49 117q0 40 15 70t36 46t56.5 28t63 16t69 10t62.5 10q24 6 34.5 15.5t10.5 32.5q0 27 -25.5 40.5
t-56.5 13.5q-73 0 -85 -65zM199 149q0 -59 71 -59q60 0 83.5 35.5t20.5 117.5q-14 -9 -54.5 -17t-50.5 -11q-70 -16 -70 -66zM298 616q22 0 37 15t15 37q0 23 -15 37.5t-37 14.5t-37 -14.5t-15 -37.5q0 -22 15 -37t37 -15zM298 564q-46 -3 -77.5 29t-29.5 75q0 47 30.5 75.5
t76.5 28.5q47 0 77 -28.5t30 -75.5q0 -45 -30.5 -74.5t-76.5 -29.5z" />
    <glyph glyph-name="ae" unicode="&#xe6;" horiz-adv-x="944" 
d="M742 157h160q-22 -76 -92 -126q-65 -46 -154 -46q-135 0 -200 79q-53 -44 -107.5 -61.5t-132.5 -17.5q-85 0 -136 39.5t-51 117.5q0 40 15 70t36 46t56.5 28t63 16t69 10t62.5 10q37 11 48 20.5t11 24.5q0 33 -25 45t-71 12q-73 0 -85 -65h-159q4 95 81 139q63 36 165 36
q134 0 189 -65q62 65 162 65q129 0 201 -93t62 -223h-373q0 -49 27 -83.5t78 -34.5q72 0 100 57zM280 90q17 0 32 3.5t25.5 8t18.5 13.5t13.5 15.5t9.5 19.5l6 19.5t3 21t1 19v18.5v15q-10 -9 -26 -13.5t-46.5 -9.5t-39.5 -7q-37 -7 -57.5 -21t-20.5 -44q0 -31 24.5 -44.5
t56.5 -13.5zM537 313h203q0 47 -26 76.5t-73 29.5q-44 0 -72 -31t-32 -75z" />
    <glyph glyph-name="ccedilla" unicode="&#xe7;" horiz-adv-x="593" 
d="M560 329h-165q0 32 -25 53.5t-58 21.5q-110 0 -110 -153q0 -56 25.5 -96t75.5 -40q84 0 97 89h165q-9 -77 -52.5 -130t-111.5 -74q-41 -14 -84 -15l-30 -45l2 -2q16 5 40 5q33 0 59 -19.5t26 -60.5q0 -97 -128 -97q-66 0 -118 31l19 45q41 -19 82 -19q51 0 51 35
q0 38 -43 38q-17 0 -40 -7l-22 19l49 79q-34 4 -69 17q-75 29 -119 94t-44 153q0 125 74 204t198 79q103 0 175 -53.5t81 -151.5z" />
    <glyph glyph-name="egrave" unicode="&#xe8;" horiz-adv-x="611" 
d="M583 218h-381q2 -55 32.5 -86.5t83.5 -31.5q33 0 59.5 14.5t37.5 42.5h159q-23 -86 -94 -129t-164 -43q-129 0 -206.5 73.5t-77.5 202.5q0 118 81.5 195.5t198.5 77.5q135 0 206 -89t65 -227zM202 313h211q-2 45 -30.5 75.5t-70.5 30.5q-44 0 -73 -28.5t-37 -77.5z
M277 725l97 -149h-120l-157 149h180z" />
    <glyph glyph-name="eacute" unicode="&#xe9;" horiz-adv-x="611" 
d="M583 218h-381q2 -55 32.5 -86.5t83.5 -31.5q33 0 59.5 14.5t37.5 42.5h159q-23 -86 -94 -129t-164 -43q-129 0 -206.5 73.5t-77.5 202.5q0 118 81.5 195.5t198.5 77.5q135 0 206 -89t65 -227zM202 313h211q-2 45 -30.5 75.5t-70.5 30.5q-44 0 -73 -28.5t-37 -77.5z
M341 725h180l-157 -149h-120z" />
    <glyph glyph-name="ecircumflex" unicode="&#xea;" horiz-adv-x="611" 
d="M583 218h-381q2 -55 32.5 -86.5t83.5 -31.5q33 0 59.5 14.5t37.5 42.5h159q-23 -86 -94 -129t-164 -43q-129 0 -206.5 73.5t-77.5 202.5q0 118 81.5 195.5t198.5 77.5q135 0 206 -89t65 -227zM202 313h211q-2 45 -30.5 75.5t-70.5 30.5q-44 0 -73 -28.5t-37 -77.5z
M316 656l-60 -80h-128l112 149h152l112 -149h-128z" />
    <glyph glyph-name="edieresis" unicode="&#xeb;" horiz-adv-x="611" 
d="M583 218h-381q2 -55 32.5 -86.5t83.5 -31.5q33 0 59.5 14.5t37.5 42.5h159q-23 -86 -94 -129t-164 -43q-129 0 -206.5 73.5t-77.5 202.5q0 118 81.5 195.5t198.5 77.5q135 0 206 -89t65 -227zM202 313h211q-2 45 -30.5 75.5t-70.5 30.5q-44 0 -73 -28.5t-37 -77.5z
M131 588v125h150v-125h-150zM494 588h-150v125h150v-125z" />
    <glyph glyph-name="igrave" unicode="&#xec;" 
d="M233 0h-170v519h170v-519zM136 725l97 -149h-120l-157 149h180z" />
    <glyph glyph-name="iacute" unicode="&#xed;" 
d="M233 0h-170v519h170v-519zM160 725h180l-157 -149h-120z" />
    <glyph glyph-name="icircumflex" unicode="&#xee;" 
d="M233 0h-170v519h170v-519zM148 656l-60 -80h-128l112 149h152l112 -149h-128z" />
    <glyph glyph-name="idieresis" unicode="&#xef;" 
d="M233 0h-170v519h170v-519zM-33 588v125h150v-125h-150zM330 588h-150v125h150v-125z" />
    <glyph glyph-name="eth" unicode="&#xf0;" horiz-adv-x="611" 
d="M92 582l121 66q-60 39 -102 52l113 78q76 -26 113 -61l124 68l68 -61l-119 -65q74 -62 121.5 -165t47.5 -212q0 -138 -75.5 -217.5t-198.5 -79.5q-120 0 -196.5 73t-76.5 184q0 109 71.5 183t171.5 74q66 0 97 -21l2 2q-27 55 -87 112l-128 -70zM202 242q0 -49 24.5 -88
t78.5 -39t79 39t25 88t-25 88t-79 39t-78.5 -39t-24.5 -88z" />
    <glyph glyph-name="ntilde" unicode="&#xf1;" horiz-adv-x="630" 
d="M57 0v519h165v-71h2q23 39 69 62.5t94 23.5q187 0 187 -201v-333h-170v251v52q0 91 -85 91q-45 0 -68.5 -32.5t-23.5 -78.5v-283h-170zM434 718h71q-7 -56 -36.5 -91.5t-82.5 -35.5q-33 0 -81 18t-64 18q-31 0 -44 -45h-71q7 54 39 95t82 41q31 0 80 -20q48 -21 65 -21
q30 0 42 41z" />
    <glyph glyph-name="ograve" unicode="&#xf2;" horiz-adv-x="611" 
d="M32 259q0 118 76.5 196.5t196.5 78.5t197 -78.5t77 -196.5t-77 -196t-197 -78t-196.5 78t-76.5 196zM202 259q0 -59 24.5 -101.5t78.5 -42.5q55 0 79.5 42.5t24.5 101.5t-24.5 102t-79.5 43q-54 0 -78.5 -43t-24.5 -102zM262 725l97 -149h-120l-157 149h180z" />
    <glyph glyph-name="oacute" unicode="&#xf3;" horiz-adv-x="611" 
d="M32 259q0 118 76.5 196.5t196.5 78.5t197 -78.5t77 -196.5t-77 -196t-197 -78t-196.5 78t-76.5 196zM202 259q0 -59 24.5 -101.5t78.5 -42.5q55 0 79.5 42.5t24.5 101.5t-24.5 102t-79.5 43q-54 0 -78.5 -43t-24.5 -102zM327 725h180l-157 -149h-120z" />
    <glyph glyph-name="ocircumflex" unicode="&#xf4;" horiz-adv-x="611" 
d="M32 259q0 118 76.5 196.5t196.5 78.5t197 -78.5t77 -196.5t-77 -196t-197 -78t-196.5 78t-76.5 196zM202 259q0 -59 24.5 -101.5t78.5 -42.5q55 0 79.5 42.5t24.5 101.5t-24.5 102t-79.5 43q-54 0 -78.5 -43t-24.5 -102zM305 656l-60 -80h-128l112 149h152l112 -149h-128
z" />
    <glyph glyph-name="otilde" unicode="&#xf5;" horiz-adv-x="611" 
d="M32 259q0 118 76.5 196.5t196.5 78.5t197 -78.5t77 -196.5t-77 -196t-197 -78t-196.5 78t-76.5 196zM202 259q0 -59 24.5 -101.5t78.5 -42.5q55 0 79.5 42.5t24.5 101.5t-24.5 102t-79.5 43q-54 0 -78.5 -43t-24.5 -102zM423 718h71q-7 -56 -36.5 -91.5t-82.5 -35.5
q-33 0 -81 18t-64 18q-31 0 -44 -45h-71q7 54 39 95t82 41q31 0 80 -20q48 -21 65 -21q30 0 42 41z" />
    <glyph glyph-name="odieresis" unicode="&#xf6;" horiz-adv-x="611" 
d="M32 259q0 118 76.5 196.5t196.5 78.5t197 -78.5t77 -196.5t-77 -196t-197 -78t-196.5 78t-76.5 196zM202 259q0 -59 24.5 -101.5t78.5 -42.5q55 0 79.5 42.5t24.5 101.5t-24.5 102t-79.5 43q-54 0 -78.5 -43t-24.5 -102zM123 588v125h150v-125h-150zM486 588h-150v125
h150v-125z" />
    <glyph glyph-name="divide" unicode="&#xf7;" horiz-adv-x="600" 
d="M201 46q0 42 28.5 70.5t70.5 28.5t70.5 -28.5t28.5 -70.5q0 -40 -29 -69.5t-70 -29.5t-70 29.5t-29 69.5zM201 460q0 42 28.5 70.5t70.5 28.5t70.5 -28.5t28.5 -70.5q0 -40 -29 -69.5t-70 -29.5t-70 29.5t-29 69.5zM552 181h-504v144h504v-144z" />
    <glyph glyph-name="oslash" unicode="&#xf8;" horiz-adv-x="611" 
d="M88 -34l-42 32l59 69q-73 76 -73 192q0 118 76.5 196.5t196.5 78.5q93 0 160 -48l51 60l44 -38l-52 -60q71 -74 71 -189q0 -118 -77 -196t-197 -78q-92 0 -159 47zM400 324l-159 -183q23 -26 64 -26q55 0 79.5 42.5t24.5 101.5q0 33 -9 65zM212 192l159 185
q-27 27 -66 27q-54 0 -78.5 -43t-24.5 -102q0 -37 10 -67z" />
    <glyph glyph-name="ugrave" unicode="&#xf9;" horiz-adv-x="630" 
d="M573 519v-519h-165v71h-2q-24 -39 -68 -62.5t-90 -23.5q-106 0 -149 56.5t-43 165.5v312h170v-301q0 -50 20.5 -71.5t63.5 -21.5q35 0 64 27t29 89v278h170zM289 725l97 -149h-120l-157 149h180z" />
    <glyph glyph-name="uacute" unicode="&#xfa;" horiz-adv-x="630" 
d="M573 519v-519h-165v71h-2q-24 -39 -68 -62.5t-90 -23.5q-106 0 -149 56.5t-43 165.5v312h170v-301q0 -50 20.5 -71.5t63.5 -21.5q35 0 64 27t29 89v278h170zM348 725h180l-157 -149h-120z" />
    <glyph glyph-name="ucircumflex" unicode="&#xfb;" horiz-adv-x="630" 
d="M573 519v-519h-165v71h-2q-24 -39 -68 -62.5t-90 -23.5q-106 0 -149 56.5t-43 165.5v312h170v-301q0 -50 20.5 -71.5t63.5 -21.5q35 0 64 27t29 89v278h170zM317 656l-60 -80h-128l112 149h152l112 -149h-128z" />
    <glyph glyph-name="udieresis" unicode="&#xfc;" horiz-adv-x="630" 
d="M573 519v-519h-165v71h-2q-24 -39 -68 -62.5t-90 -23.5q-106 0 -149 56.5t-43 165.5v312h170v-301q0 -50 20.5 -71.5t63.5 -21.5q35 0 64 27t29 89v278h170zM134 588v125h150v-125h-150zM497 588h-150v125h150v-125z" />
    <glyph glyph-name="yacute" unicode="&#xfd;" horiz-adv-x="537" 
d="M545 519l-205 -565q-28 -80 -75.5 -104t-141.5 -24h-80v138h59q30 0 49 15.5t19 42.5q0 10 -5.5 30t-11.5 37t-15 40.5t-11 28.5l-134 361h180l98 -338h2l98 338h174zM306 725h180l-157 -149h-120z" />
    <glyph glyph-name="thorn" unicode="&#xfe;" horiz-adv-x="630" 
d="M325 404q-41 0 -72.5 -33t-31.5 -106q0 -150 103 -150q52 0 77 44.5t25 105.5q0 57 -24.5 98t-76.5 41zM227 714v-252h2q53 72 148 72q106 0 162.5 -83t56.5 -203q0 -109 -57.5 -186t-161.5 -77q-95 0 -148 71h-2v-230h-170v888h170z" />
    <glyph glyph-name="ydieresis" unicode="&#xff;" horiz-adv-x="537" 
d="M545 519l-205 -565q-28 -80 -75.5 -104t-141.5 -24h-80v138h59q30 0 49 15.5t19 42.5q0 10 -5.5 30t-11.5 37t-15 40.5t-11 28.5l-134 361h180l98 -338h2l98 338h174zM89 588v125h150v-125h-150zM452 588h-150v125h150v-125z" />
    <glyph glyph-name="Amacron" unicode="&#x100;" horiz-adv-x="704" 
d="M-9 0l267 714h189l267 -714h-194l-44 128h-249l-45 -128h-191zM351 516l-81 -250h162l-79 250h-2zM514 793h-325v86h325v-86z" />
    <glyph glyph-name="amacron" unicode="&#x101;" horiz-adv-x="593" 
d="M209 359h-159q4 95 81 139q63 36 165 36q40 0 72.5 -4t65.5 -15t55 -30t35.5 -50.5t13.5 -74.5v-227q0 -92 20 -133h-171q-2 5 -10 49q-60 -64 -171 -64q-79 0 -128 40t-49 117q0 40 15 70t36 46t56.5 28t63 16t69 10t62.5 10q24 6 34.5 15.5t10.5 32.5q0 27 -25.5 40.5
t-56.5 13.5q-73 0 -85 -65zM199 149q0 -59 71 -59q60 0 83.5 35.5t20.5 117.5q-14 -9 -54.5 -17t-50.5 -11q-70 -16 -70 -66zM465 607h-325v86h325v-86z" />
    <glyph glyph-name="Abreve" unicode="&#x102;" horiz-adv-x="704" 
d="M-9 0l267 714h189l267 -714h-194l-44 128h-249l-45 -128h-191zM351 516l-81 -250h162l-79 250h-2zM178 913h71q10 -68 103 -68t103 68h71q0 -69 -49 -111.5t-125 -42.5t-125 42.5t-49 111.5z" />
    <glyph glyph-name="abreve" unicode="&#x103;" horiz-adv-x="593" 
d="M209 359h-159q4 95 81 139q63 36 165 36q40 0 72.5 -4t65.5 -15t55 -30t35.5 -50.5t13.5 -74.5v-227q0 -92 20 -133h-171q-2 5 -10 49q-60 -64 -171 -64q-79 0 -128 40t-49 117q0 40 15 70t36 46t56.5 28t63 16t69 10t62.5 10q24 6 34.5 15.5t10.5 32.5q0 27 -25.5 40.5
t-56.5 13.5q-73 0 -85 -65zM199 149q0 -59 71 -59q60 0 83.5 35.5t20.5 117.5q-14 -9 -54.5 -17t-50.5 -11q-70 -16 -70 -66zM121 727h71q10 -68 103 -68t103 68h71q0 -69 -49 -111.5t-125 -42.5t-125 42.5t-49 111.5z" />
    <glyph glyph-name="Aogonek" unicode="&#x104;" horiz-adv-x="704" 
d="M714 0h-120q-47 -47 -65.5 -73t-18.5 -51q0 -33 34 -33q16 0 27.5 5.5t31.5 24.5l53 -25q-24 -39 -61 -60.5t-74 -21.5q-50 1 -78 20t-32 66q0 75 109 148l-44 128h-249l-45 -128h-191l267 714h189zM351 516l-81 -250h162l-79 250h-2z" />
    <glyph glyph-name="aogonek" unicode="&#x105;" horiz-adv-x="593" 
d="M558 0h-97q-47 -47 -65.5 -73t-18.5 -51q0 -33 34 -33q16 0 27.5 5.5t31.5 24.5l53 -25q-24 -39 -61 -60.5t-74 -21.5q-50 1 -78 20t-32 66q0 75 109 148q-2 5 -10 49q-60 -64 -171 -64q-79 0 -128 40t-49 117q0 40 15 70t36 46t56.5 28t63 16t69 10t62.5 10
q24 6 34.5 15.5t10.5 32.5q0 27 -25.5 40.5t-56.5 13.5q-73 0 -85 -65h-159q4 95 81 139q63 36 165 36q40 0 72.5 -4t65.5 -15t55 -30t35.5 -50.5t13.5 -74.5v-227q0 -92 20 -133zM199 149q0 -59 71 -59q60 0 83.5 35.5t20.5 117.5q-14 -9 -54.5 -17t-50.5 -11
q-70 -16 -70 -66z" />
    <glyph glyph-name="Cacute" unicode="&#x106;" horiz-adv-x="759" 
d="M724 459h-186q-8 53 -46 81.5t-98 28.5q-84 0 -125 -61.5t-41 -150.5t41 -150.5t125 -61.5q65 0 102 34.5t42 97.5h186q-8 -136 -98 -214t-228 -78q-159 0 -257.5 106.5t-98.5 265.5t98.5 265.5t257.5 106.5q125 0 223.5 -74t102.5 -196zM428 911h180l-157 -149h-120z
" />
    <glyph glyph-name="cacute" unicode="&#x107;" horiz-adv-x="593" 
d="M560 329h-165q0 32 -25 53.5t-58 21.5q-110 0 -110 -153q0 -56 25.5 -96t75.5 -40q84 0 97 89h165q-12 -103 -83.5 -161t-177.5 -58q-118 0 -195 73.5t-77 192.5q0 125 74 204t198 79q103 0 175 -53.5t81 -151.5zM338 725h180l-157 -149h-120z" />
    <glyph glyph-name="Ccircumflex" unicode="&#x108;" horiz-adv-x="759" 
d="M724 459h-186q-8 53 -46 81.5t-98 28.5q-84 0 -125 -61.5t-41 -150.5t41 -150.5t125 -61.5q65 0 102 34.5t42 97.5h186q-8 -136 -98 -214t-228 -78q-159 0 -257.5 106.5t-98.5 265.5t98.5 265.5t257.5 106.5q125 0 223.5 -74t102.5 -196zM402 842l-60 -80h-128l112 149
h152l112 -149h-128z" />
    <glyph glyph-name="ccircumflex" unicode="&#x109;" horiz-adv-x="593" 
d="M560 329h-165q0 32 -25 53.5t-58 21.5q-110 0 -110 -153q0 -56 25.5 -96t75.5 -40q84 0 97 89h165q-12 -103 -83.5 -161t-177.5 -58q-118 0 -195 73.5t-77 192.5q0 125 74 204t198 79q103 0 175 -53.5t81 -151.5zM310 656l-60 -80h-128l112 149h152l112 -149h-128z" />
    <glyph glyph-name="Cdotaccent" unicode="&#x10a;" horiz-adv-x="759" 
d="M724 459h-186q-8 53 -46 81.5t-98 28.5q-84 0 -125 -61.5t-41 -150.5t41 -150.5t125 -61.5q65 0 102 34.5t42 97.5h186q-8 -136 -98 -214t-228 -78q-159 0 -257.5 106.5t-98.5 265.5t98.5 265.5t257.5 106.5q125 0 223.5 -74t102.5 -196zM474 774h-150v125h150v-125z" />
    <glyph glyph-name="cdotaccent" unicode="&#x10b;" horiz-adv-x="593" 
d="M560 329h-165q0 32 -25 53.5t-58 21.5q-110 0 -110 -153q0 -56 25.5 -96t75.5 -40q84 0 97 89h165q-12 -103 -83.5 -161t-177.5 -58q-118 0 -195 73.5t-77 192.5q0 125 74 204t198 79q103 0 175 -53.5t81 -151.5zM381 588h-150v125h150v-125z" />
    <glyph glyph-name="Ccaron" unicode="&#x10c;" horiz-adv-x="759" 
d="M724 459h-186q-8 53 -46 81.5t-98 28.5q-84 0 -125 -61.5t-41 -150.5t41 -150.5t125 -61.5q65 0 102 34.5t42 97.5h186q-8 -136 -98 -214t-228 -78q-159 0 -257.5 106.5t-98.5 265.5t98.5 265.5t257.5 106.5q125 0 223.5 -74t102.5 -196zM477 762h-152l-112 149h128
l60 -80l60 80h128z" />
    <glyph glyph-name="ccaron" unicode="&#x10d;" horiz-adv-x="593" 
d="M560 329h-165q0 32 -25 53.5t-58 21.5q-110 0 -110 -153q0 -56 25.5 -96t75.5 -40q84 0 97 89h165q-12 -103 -83.5 -161t-177.5 -58q-118 0 -195 73.5t-77 192.5q0 125 74 204t198 79q103 0 175 -53.5t81 -151.5zM383 576h-152l-112 149h128l60 -80l60 80h128z" />
    <glyph glyph-name="Dcaron" unicode="&#x10e;" horiz-adv-x="759" 
d="M250 554v-394h88q106 2 151.5 48t45.5 153q0 193 -197 193h-88zM64 0v714h307q164 0 257 -94t93 -260q0 -174 -92.5 -267t-257.5 -93h-307zM411 762h-152l-112 149h128l60 -80l60 80h128z" />
    <glyph glyph-name="dcaron" unicode="&#x10f;" horiz-adv-x="739" 
d="M571 714v-714h-162v60h-2q-51 -75 -143 -75q-78 0 -132 42t-77 104.5t-23 139.5q0 109 57.5 186t161.5 77q95 0 148 -71h2v251h170zM306 404q-53 0 -78.5 -41t-25.5 -98q0 -61 25.5 -105.5t78.5 -44.5q101 0 101 145q0 62 -24.5 103t-76.5 41zM650 714h157l-88 -149h-104
z" />
    <glyph glyph-name="Dcroat" unicode="&#x110;" horiz-adv-x="759" 
d="M64 0v296h-72v144h72v274h307q164 0 257 -94t93 -260q0 -174 -92.5 -267t-257.5 -93h-307zM250 554v-114h158v-144h-158v-136h88q106 2 151.5 48t45.5 153q0 193 -197 193h-88z" />
    <glyph glyph-name="dcroat" unicode="&#x111;" horiz-adv-x="649" 
d="M571 554v-554h-162v60h-2q-51 -75 -143 -75q-78 0 -132 42t-77 104.5t-23 139.5q0 109 57.5 186t161.5 77q95 0 148 -71h2v91h-93v86h93v74h170v-74h88v-86h-88zM306 404q-53 0 -78.5 -41t-25.5 -98q0 -61 25.5 -105.5t78.5 -44.5q101 0 101 145q0 62 -24.5 103t-76.5 41
z" />
    <glyph glyph-name="Emacron" unicode="&#x112;" horiz-adv-x="685" 
d="M64 0v714h569v-149h-383v-125h350v-144h-350v-136h393v-160h-579zM509 793h-325v86h325v-86z" />
    <glyph glyph-name="emacron" unicode="&#x113;" horiz-adv-x="611" 
d="M583 218h-381q2 -55 32.5 -86.5t83.5 -31.5q33 0 59.5 14.5t37.5 42.5h159q-23 -86 -94 -129t-164 -43q-129 0 -206.5 73.5t-77.5 202.5q0 118 81.5 195.5t198.5 77.5q135 0 206 -89t65 -227zM202 313h211q-2 45 -30.5 75.5t-70.5 30.5q-44 0 -73 -28.5t-37 -77.5z
M477 607h-325v86h325v-86z" />
    <glyph glyph-name="Ebreve" unicode="&#x114;" horiz-adv-x="685" 
d="M64 0v714h569v-149h-383v-125h350v-144h-350v-136h393v-160h-579zM169 913h71q10 -68 103 -68t103 68h71q0 -69 -49 -111.5t-125 -42.5t-125 42.5t-49 111.5z" />
    <glyph glyph-name="ebreve" unicode="&#x115;" horiz-adv-x="611" 
d="M583 218h-381q2 -55 32.5 -86.5t83.5 -31.5q33 0 59.5 14.5t37.5 42.5h159q-23 -86 -94 -129t-164 -43q-129 0 -206.5 73.5t-77.5 202.5q0 118 81.5 195.5t198.5 77.5q135 0 206 -89t65 -227zM202 313h211q-2 45 -30.5 75.5t-70.5 30.5q-44 0 -73 -28.5t-37 -77.5z
M133 727h71q10 -68 103 -68t103 68h71q0 -69 -49 -111.5t-125 -42.5t-125 42.5t-49 111.5z" />
    <glyph glyph-name="Edotaccent" unicode="&#x116;" horiz-adv-x="685" 
d="M64 0v714h569v-149h-383v-125h350v-144h-350v-136h393v-160h-579zM424 774h-150v125h150v-125z" />
    <glyph glyph-name="edotaccent" unicode="&#x117;" horiz-adv-x="611" 
d="M583 218h-381q2 -55 32.5 -86.5t83.5 -31.5q33 0 59.5 14.5t37.5 42.5h159q-23 -86 -94 -129t-164 -43q-129 0 -206.5 73.5t-77.5 202.5q0 118 81.5 195.5t198.5 77.5q135 0 206 -89t65 -227zM202 313h211q-2 45 -30.5 75.5t-70.5 30.5q-44 0 -73 -28.5t-37 -77.5z
M387 588h-150v125h150v-125z" />
    <glyph glyph-name="Eogonek" unicode="&#x118;" horiz-adv-x="685" 
d="M643 0h-61q-47 -47 -65.5 -73t-18.5 -51q0 -33 34 -33q16 0 27.5 5.5t31.5 24.5l53 -25q-24 -39 -61 -60.5t-74 -21.5q-50 1 -78 20t-32 66q0 75 109 148h-444v714h569v-149h-383v-125h350v-144h-350v-136h393v-160z" />
    <glyph glyph-name="eogonek" unicode="&#x119;" horiz-adv-x="611" 
d="M583 218h-381q2 -55 32.5 -86.5t83.5 -31.5q33 0 59.5 14.5t37.5 42.5h159q-34 -128 -174 -162q-30 -6 -45 -8q-32 -32 -51 -58t-19 -53q0 -33 34 -33q16 0 27.5 5.5t31.5 24.5l53 -25q-24 -39 -61 -60.5t-74 -21.5q-50 1 -78 20t-32 66q0 52 51 103q17 17 39 32
q-42 5 -76 16q-79 29 -123.5 95.5t-44.5 162.5q0 118 81.5 195.5t198.5 77.5q135 0 206 -89t65 -227zM202 313h211q-2 45 -30.5 75.5t-70.5 30.5q-44 0 -73 -28.5t-37 -77.5z" />
    <glyph glyph-name="Ecaron" unicode="&#x11a;" horiz-adv-x="685" 
d="M64 0v714h569v-149h-383v-125h350v-144h-350v-136h393v-160h-579zM424 762h-152l-112 149h128l60 -80l60 80h128z" />
    <glyph glyph-name="ecaron" unicode="&#x11b;" horiz-adv-x="611" 
d="M583 218h-381q2 -55 32.5 -86.5t83.5 -31.5q33 0 59.5 14.5t37.5 42.5h159q-23 -86 -94 -129t-164 -43q-129 0 -206.5 73.5t-77.5 202.5q0 118 81.5 195.5t198.5 77.5q135 0 206 -89t65 -227zM202 313h211q-2 45 -30.5 75.5t-70.5 30.5q-44 0 -73 -28.5t-37 -77.5z
M387 576h-152l-112 149h128l60 -80l60 80h128z" />
    <glyph glyph-name="Gcircumflex" unicode="&#x11c;" horiz-adv-x="778" 
d="M723 391v-391h-120l-11 78q-33 -48 -88.5 -70.5t-110.5 -22.5q-159 0 -257.5 106.5t-98.5 265.5t98.5 265.5t257.5 106.5q57 0 111 -15.5t100 -45.5t76 -81t36 -116h-186q-5 45 -44 71.5t-97 26.5q-84 0 -125 -61.5t-41 -150.5t41 -150.5t125 -61.5q68 0 112 29.5
t52 78.5h-130v138h300zM396 842l-60 -80h-128l112 149h152l112 -149h-128z" />
    <glyph glyph-name="gcircumflex" unicode="&#x11d;" horiz-adv-x="611" 
d="M559 519v-456q0 -32 -3.5 -58.5t-18.5 -63.5t-40.5 -62t-76.5 -43t-120 -18q-50 0 -89 6.5t-76 24t-60 51.5t-30 84h170q6 -33 29 -45q22 -11 62 -11q55 0 72 31t17 90v49h-2q-49 -76 -138 -76q-113 0 -170.5 71t-57.5 187q0 108 61 181t167 73q94 0 139 -80h2v65h163z
M398 273q0 56 -25 93.5t-77 37.5t-75.5 -37.5t-23.5 -92.5q0 -51 25 -86.5t73 -35.5q51 0 77 34.5t26 86.5zM316 656l-60 -80h-128l112 149h152l112 -149h-128z" />
    <glyph glyph-name="Gbreve" unicode="&#x11e;" horiz-adv-x="778" 
d="M723 391v-391h-120l-11 78q-33 -48 -88.5 -70.5t-110.5 -22.5q-159 0 -257.5 106.5t-98.5 265.5t98.5 265.5t257.5 106.5q57 0 111 -15.5t100 -45.5t76 -81t36 -116h-186q-5 45 -44 71.5t-97 26.5q-84 0 -125 -61.5t-41 -150.5t41 -150.5t125 -61.5q68 0 112 29.5
t52 78.5h-130v138h300zM222 913h71q10 -68 103 -68t103 68h71q0 -69 -49 -111.5t-125 -42.5t-125 42.5t-49 111.5z" />
    <glyph glyph-name="gbreve" unicode="&#x11f;" horiz-adv-x="611" 
d="M559 519v-456q0 -32 -3.5 -58.5t-18.5 -63.5t-40.5 -62t-76.5 -43t-120 -18q-50 0 -89 6.5t-76 24t-60 51.5t-30 84h170q6 -33 29 -45q22 -11 62 -11q55 0 72 31t17 90v49h-2q-49 -76 -138 -76q-113 0 -170.5 71t-57.5 187q0 108 61 181t167 73q94 0 139 -80h2v65h163z
M398 273q0 56 -25 93.5t-77 37.5t-75.5 -37.5t-23.5 -92.5q0 -51 25 -86.5t73 -35.5q51 0 77 34.5t26 86.5zM137 727h71q10 -68 103 -68t103 68h71q0 -69 -49 -111.5t-125 -42.5t-125 42.5t-49 111.5z" />
    <glyph glyph-name="Gdotaccent" unicode="&#x120;" horiz-adv-x="778" 
d="M723 391v-391h-120l-11 78q-33 -48 -88.5 -70.5t-110.5 -22.5q-159 0 -257.5 106.5t-98.5 265.5t98.5 265.5t257.5 106.5q57 0 111 -15.5t100 -45.5t76 -81t36 -116h-186q-5 45 -44 71.5t-97 26.5q-84 0 -125 -61.5t-41 -150.5t41 -150.5t125 -61.5q68 0 112 29.5
t52 78.5h-130v138h300zM472 774h-150v125h150v-125z" />
    <glyph glyph-name="gdotaccent" unicode="&#x121;" horiz-adv-x="611" 
d="M559 519v-456q0 -32 -3.5 -58.5t-18.5 -63.5t-40.5 -62t-76.5 -43t-120 -18q-50 0 -89 6.5t-76 24t-60 51.5t-30 84h170q6 -33 29 -45q22 -11 62 -11q55 0 72 31t17 90v49h-2q-49 -76 -138 -76q-113 0 -170.5 71t-57.5 187q0 108 61 181t167 73q94 0 139 -80h2v65h163z
M398 273q0 56 -25 93.5t-77 37.5t-75.5 -37.5t-23.5 -92.5q0 -51 25 -86.5t73 -35.5q51 0 77 34.5t26 86.5zM383 588h-150v125h150v-125z" />
    <glyph glyph-name="Gcommaaccent" unicode="&#x122;" horiz-adv-x="778" 
d="M723 391v-391h-120l-11 78q-33 -48 -88.5 -70.5t-110.5 -22.5q-159 0 -257.5 106.5t-98.5 265.5t98.5 265.5t257.5 106.5q57 0 111 -15.5t100 -45.5t76 -81t36 -116h-186q-5 45 -44 71.5t-97 26.5q-84 0 -125 -61.5t-41 -150.5t41 -150.5t125 -61.5q68 0 112 29.5
t52 78.5h-130v138h300zM311 -155v105h154v-81q0 -103 -140 -103v42q27 3 39 11t16 26h-69z" />
    <glyph glyph-name="gcommaaccent" unicode="&#x123;" horiz-adv-x="611" 
d="M559 519v-456q0 -32 -3.5 -58.5t-18.5 -63.5t-40.5 -62t-76.5 -43t-120 -18q-50 0 -89 6.5t-76 24t-60 51.5t-30 84h170q6 -33 29 -45q22 -11 62 -11q55 0 72 31t17 90v49h-2q-49 -76 -138 -76q-113 0 -170.5 71t-57.5 187q0 108 61 181t167 73q94 0 139 -80h2v65h163z
M398 273q0 56 -25 93.5t-77 37.5t-75.5 -37.5t-23.5 -92.5q0 -51 25 -86.5t73 -35.5q51 0 77 34.5t26 86.5zM383 714v-105h-154v81q0 103 140 103v-42q-27 -3 -39 -11t-16 -26h69z" />
    <glyph glyph-name="Hcircumflex" unicode="&#x124;" horiz-adv-x="741" 
d="M62 0v714h186v-260h245v260h186v-714h-186v294h-245v-294h-186zM370 842l-60 -80h-128l112 149h152l112 -149h-128z" />
    <glyph glyph-name="hcircumflex" unicode="&#x125;" horiz-adv-x="630" 
d="M57 0v714h170v-266h2q20 39 65 62.5t93 23.5q187 0 187 -201v-333h-170v251v52q0 91 -85 91q-45 0 -68.5 -32.5t-23.5 -78.5v-283h-170zM309 842l-60 -80h-128l112 149h152l112 -149h-128z" />
    <glyph glyph-name="Hbar" unicode="&#x126;" horiz-adv-x="741" 
d="M62 0v714h186v-143h245v143h186v-714h-186v254h-245v-254h-186zM248 404h245v81h-245v-81z" />
    <glyph glyph-name="hbar" unicode="&#x127;" horiz-adv-x="656" 
d="M83 640v74h170v-74h92v-86h-92v-106h2q20 39 65 62.5t93 23.5q187 0 187 -201v-333h-170v303q0 91 -85 91q-45 0 -68.5 -32.5t-23.5 -78.5v-283h-170v554h-93v86h93z" />
    <glyph glyph-name="Itilde" unicode="&#x128;" horiz-adv-x="315" 
d="M64 0v714h186v-714h-186zM277 904h71q-7 -56 -36.5 -91.5t-82.5 -35.5q-33 0 -81 18t-64 18q-31 0 -44 -45h-71q7 54 39 95t82 41q31 0 80 -20q48 -21 65 -21q30 0 42 41z" />
    <glyph glyph-name="itilde" unicode="&#x129;" 
d="M233 0h-170v519h170v-519zM269 718h71q-7 -56 -36.5 -91.5t-82.5 -35.5q-33 0 -81 18t-64 18q-31 0 -44 -45h-71q7 54 39 95t82 41q31 0 80 -20q48 -21 65 -21q30 0 42 41z" />
    <glyph glyph-name="Imacron" unicode="&#x12a;" horiz-adv-x="315" 
d="M64 0v714h186v-714h-186zM321 793h-325v86h325v-86z" />
    <glyph glyph-name="imacron" unicode="&#x12b;" 
d="M233 0h-170v519h170v-519zM312 607h-325v86h325v-86z" />
    <glyph glyph-name="Iogonek" unicode="&#x12e;" horiz-adv-x="315" 
d="M250 0h-34q-45 -47 -62 -73t-17 -51q0 -33 32 -33q15 0 26 5.5t30 24.5l50 -25q-23 -39 -58 -60.5t-70 -21.5q-47 1 -73.5 20t-30.5 66q0 35 20.5 69.5t82.5 78.5h-82v714h186v-714z" />
    <glyph glyph-name="iogonek" unicode="&#x12f;" 
d="M233 0h-36q-43 -46 -59.5 -72.5t-16.5 -51.5q0 -33 31 -33q25 0 53 30l48 -25q-23 -39 -55.5 -60.5t-66.5 -21.5q-45 1 -70 20t-29 66q0 74 98 148h-67v519h170v-519zM233 714v-130h-170v130h170z" />
    <glyph glyph-name="Idotaccent" unicode="&#x130;" horiz-adv-x="315" 
d="M64 0v714h186v-714h-186zM232 794h-150v125h150v-125z" />
    <glyph glyph-name="dotlessi" unicode="&#x131;" 
d="M233 0h-170v519h170v-519z" />
    <glyph glyph-name="IJ" unicode="&#x132;" horiz-adv-x="893" 
d="M64 0v714h186v-714h-186zM828 714v-488q0 -241 -250 -241q-135 0 -192.5 70t-57.5 198v31h175v-66q0 -73 72 -73q34 0 50.5 21.5t16.5 71.5v476h186z" />
    <glyph glyph-name="ij" unicode="&#x133;" horiz-adv-x="580" 
d="M233 714v-130h-170v130h170zM63 0v519h170v-519h-170zM517 714v-130h-170v130h170zM517 519v-519q0 -96 -40 -135t-132 -39h-86v138h34q28 1 41 11.5t13 36.5v507h170z" />
    <glyph glyph-name="Jcircumflex" unicode="&#x134;" horiz-adv-x="593" 
d="M528 714v-488q0 -241 -250 -241q-135 0 -192.5 70t-57.5 198v31h175v-66q0 -73 72 -73q34 0 50.5 21.5t16.5 71.5v476h186zM432 842l-60 -80h-128l112 149h152l112 -149h-128z" />
    <glyph glyph-name="jcircumflex" unicode="&#x135;" 
d="M233 519v-519q0 -96 -40 -135t-132 -39h-86v138h34q28 1 41 11.5t13 36.5v507h170zM145 656l-60 -80h-128l112 149h152l112 -149h-128z" />
    <glyph glyph-name="Kcommaaccent" unicode="&#x136;" horiz-adv-x="741" 
d="M64 0v714h186v-274l235 274h231l-264 -281l297 -433h-231l-192 300l-76 -80v-220h-186zM298 -155v105h154v-81q0 -103 -140 -103v42q27 3 39 11t16 26h-69z" />
    <glyph glyph-name="kcommaaccent" unicode="&#x137;" horiz-adv-x="593" 
d="M57 0v714h170v-368l155 173h197l-190 -196l214 -323h-205l-127 209l-44 -43v-166h-170zM236 -155v105h154v-81q0 -103 -140 -103v42q27 3 39 11t16 26h-69z" />
    <glyph glyph-name="Lacute" unicode="&#x139;" horiz-adv-x="611" 
d="M64 0v714h186v-554h333v-160h-519zM190 911h180l-157 -149h-120z" />
    <glyph glyph-name="lacute" unicode="&#x13a;" 
d="M63 0v714h170v-714h-170zM160 911h180l-157 -149h-120z" />
    <glyph glyph-name="Lcommaaccent" unicode="&#x13b;" horiz-adv-x="611" 
d="M64 0v714h186v-554h333v-160h-519zM243 -155v105h154v-81q0 -103 -140 -103v42q27 3 39 11t16 26h-69z" />
    <glyph glyph-name="lcommaaccent" unicode="&#x13c;" 
d="M63 0v714h170v-714h-170zM71 -155v105h154v-81q0 -103 -140 -103v42q27 3 39 11t16 26h-69z" />
    <glyph glyph-name="Lcaron" unicode="&#x13d;" horiz-adv-x="611" 
d="M64 0v714h186v-554h333v-160h-519zM385 714h157l-88 -149h-104z" />
    <glyph glyph-name="lcaron" unicode="&#x13e;" horiz-adv-x="401" 
d="M63 0v714h170v-714h-170zM312 714h157l-88 -149h-104z" />
    <glyph glyph-name="Ldot" unicode="&#x13f;" horiz-adv-x="611" 
d="M64 0v714h186v-554h333v-160h-519zM490 370h-133v146h133v-146z" />
    <glyph glyph-name="ldot" unicode="&#x140;" horiz-adv-x="440" 
d="M63 0v714h170v-714h-170zM419 366h-126v157h126v-157z" />
    <glyph glyph-name="Lslash" unicode="&#x141;" horiz-adv-x="611" 
d="M64 0v190l-66 -45v119l66 45v405h186v-276l180 124v-119l-180 -124v-159h333v-160h-519z" />
    <glyph glyph-name="lslash" unicode="&#x142;" 
d="M63 0v270l-78 -59v112l78 59v332h170v-202l78 59v-112l-78 -59v-400h-170z" />
    <glyph glyph-name="Nacute" unicode="&#x143;" horiz-adv-x="741" 
d="M62 0v714h191l248 -440h2v440h175v-714h-191l-248 445h-2v-445h-175zM401 911h180l-157 -149h-120z" />
    <glyph glyph-name="nacute" unicode="&#x144;" horiz-adv-x="630" 
d="M57 0v519h165v-71h2q23 39 69 62.5t94 23.5q187 0 187 -201v-333h-170v251v52q0 91 -85 91q-45 0 -68.5 -32.5t-23.5 -78.5v-283h-170zM346 725h180l-157 -149h-120z" />
    <glyph glyph-name="Ncommaaccent" unicode="&#x145;" horiz-adv-x="741" 
d="M62 0v714h191l248 -440h2v440h175v-714h-191l-248 445h-2v-445h-175zM295 -155v105h154v-81q0 -103 -140 -103v42q27 3 39 11t16 26h-69z" />
    <glyph glyph-name="ncommaaccent" unicode="&#x146;" horiz-adv-x="630" 
d="M57 0v519h165v-71h2q23 39 69 62.5t94 23.5q187 0 187 -201v-333h-170v251v52q0 91 -85 91q-45 0 -68.5 -32.5t-23.5 -78.5v-283h-170zM238 -155v105h154v-81q0 -103 -140 -103v42q27 3 39 11t16 26h-69z" />
    <glyph glyph-name="Ncaron" unicode="&#x147;" horiz-adv-x="741" 
d="M62 0v714h191l248 -440h2v440h175v-714h-191l-248 445h-2v-445h-175zM446 762h-152l-112 149h128l60 -80l60 80h128z" />
    <glyph glyph-name="ncaron" unicode="&#x148;" horiz-adv-x="630" 
d="M57 0v519h165v-71h2q23 39 69 62.5t94 23.5q187 0 187 -201v-333h-170v251v52q0 91 -85 91q-45 0 -68.5 -32.5t-23.5 -78.5v-283h-170zM390 576h-152l-112 149h128l60 -80l60 80h128z" />
    <glyph glyph-name="napostrophe" unicode="&#x149;" horiz-adv-x="656" 
d="M83 0v519h165v-71h2q23 39 69 62.5t94 23.5q187 0 187 -201v-333h-170v251v52q0 91 -85 91q-45 0 -68.5 -32.5t-23.5 -78.5v-283h-170zM10 714v105h154v-81q0 -103 -140 -103v42q27 3 39 11t16 26h-69z" />
    <glyph glyph-name="Omacron" unicode="&#x14c;" horiz-adv-x="778" 
d="M223 357q0 -89 41 -150.5t125 -61.5t125 61.5t41 150.5t-41 150.5t-125 61.5t-125 -61.5t-41 -150.5zM37 357q0 161 94.5 266.5t257.5 105.5t257.5 -105.5t94.5 -266.5t-94.5 -266.5t-257.5 -105.5t-257.5 105.5t-94.5 266.5zM555 793h-325v86h325v-86z" />
    <glyph glyph-name="omacron" unicode="&#x14d;" horiz-adv-x="611" 
d="M32 259q0 118 76.5 196.5t196.5 78.5t197 -78.5t77 -196.5t-77 -196t-197 -78t-196.5 78t-76.5 196zM202 259q0 -59 24.5 -101.5t78.5 -42.5q55 0 79.5 42.5t24.5 101.5t-24.5 102t-79.5 43q-54 0 -78.5 -43t-24.5 -102zM469 607h-325v86h325v-86z" />
    <glyph glyph-name="Obreve" unicode="&#x14e;" horiz-adv-x="778" 
d="M223 357q0 -89 41 -150.5t125 -61.5t125 61.5t41 150.5t-41 150.5t-125 61.5t-125 -61.5t-41 -150.5zM37 357q0 161 94.5 266.5t257.5 105.5t257.5 -105.5t94.5 -266.5t-94.5 -266.5t-257.5 -105.5t-257.5 105.5t-94.5 266.5zM216 913h71q10 -68 103 -68t103 68h71
q0 -69 -49 -111.5t-125 -42.5t-125 42.5t-49 111.5z" />
    <glyph glyph-name="obreve" unicode="&#x14f;" horiz-adv-x="611" 
d="M32 259q0 118 76.5 196.5t196.5 78.5t197 -78.5t77 -196.5t-77 -196t-197 -78t-196.5 78t-76.5 196zM202 259q0 -59 24.5 -101.5t78.5 -42.5q55 0 79.5 42.5t24.5 101.5t-24.5 102t-79.5 43q-54 0 -78.5 -43t-24.5 -102zM134 727h71q10 -68 103 -68t103 68h71
q0 -69 -49 -111.5t-125 -42.5t-125 42.5t-49 111.5z" />
    <glyph glyph-name="Ohungarumlaut" unicode="&#x150;" horiz-adv-x="778" 
d="M223 357q0 -89 41 -150.5t125 -61.5t125 61.5t41 150.5t-41 150.5t-125 61.5t-125 -61.5t-41 -150.5zM37 357q0 161 94.5 266.5t257.5 105.5t257.5 -105.5t94.5 -266.5t-94.5 -266.5t-257.5 -105.5t-257.5 105.5t-94.5 266.5zM508 911h125l-120 -149h-86zM343 911h125
l-120 -149h-86z" />
    <glyph glyph-name="ohungarumlaut" unicode="&#x151;" horiz-adv-x="611" 
d="M32 259q0 118 76.5 196.5t196.5 78.5t197 -78.5t77 -196.5t-77 -196t-197 -78t-196.5 78t-76.5 196zM202 259q0 -59 24.5 -101.5t78.5 -42.5q55 0 79.5 42.5t24.5 101.5t-24.5 102t-79.5 43q-54 0 -78.5 -43t-24.5 -102zM418 725h125l-120 -149h-86zM253 725h125
l-120 -149h-86z" />
    <glyph glyph-name="OE" unicode="&#x152;" horiz-adv-x="1111" 
d="M396 569q-91 0 -132 -60.5t-41 -151.5t41 -151.5t132 -60.5q65 0 102.5 48.5t37.5 115.5v96q0 67 -37.5 115.5t-102.5 48.5zM1059 714v-149h-347v-125h317v-144h-317v-136h355v-160h-529v45q-54 -60 -162 -60q-102 0 -181 53t-118.5 137t-39.5 182t39.5 182t118.5 137
t181 53q112 0 160 -62h2v47h521z" />
    <glyph glyph-name="oe" unicode="&#x153;" horiz-adv-x="963" 
d="M935 218h-380q-1 -53 32 -85.5t87 -32.5q37 0 58 12.5t36 44.5h162q-23 -84 -95.5 -128t-167.5 -44q-122 0 -186 76q-60 -76 -187 -76q-119 0 -190.5 73.5t-71.5 193.5q0 126 74.5 204t199.5 78q126 0 182 -77q28 35 78.5 56t99.5 21q136 0 203.5 -88t65.5 -228zM202 262
q0 -147 108 -147q52 0 75 44t23 100q0 59 -21.5 102t-74.5 43q-58 0 -84 -41t-26 -101zM553 313h212q-12 106 -104 106q-46 0 -75.5 -30t-32.5 -76z" />
    <glyph glyph-name="Racute" unicode="&#x154;" horiz-adv-x="722" 
d="M250 565v-161h156q86 0 86 84q0 38 -26.5 57.5t-67.5 19.5h-148zM64 0v714h364q49 0 92 -11.5t79.5 -34.5t57.5 -63t21 -92q0 -61 -28.5 -109.5t-83.5 -69.5v-2q93 -24 104 -171q0 -2 2.5 -33t4.5 -50t8 -43.5t15 -34.5h-184q-7 11 -11.5 33t-7 50.5t-2.5 30.5
q-2 33 -6 54t-14.5 45t-31.5 35.5t-52 11.5h-141v-260h-186zM362 911h180l-157 -149h-120z" />
    <glyph glyph-name="racute" unicode="&#x155;" horiz-adv-x="426" 
d="M63 0v519h165v-91h2q38 101 156 101q23 0 40 -4v-155q-33 10 -65 10q-60 0 -94 -35.5t-34 -87.5v-257h-170zM205 725h180l-157 -149h-120z" />
    <glyph glyph-name="Rcommaaccent" unicode="&#x156;" horiz-adv-x="722" 
d="M250 565v-161h156q86 0 86 84q0 38 -26.5 57.5t-67.5 19.5h-148zM64 0v714h364q49 0 92 -11.5t79.5 -34.5t57.5 -63t21 -92q0 -61 -28.5 -109.5t-83.5 -69.5v-2q93 -24 104 -171q0 -2 2.5 -33t4.5 -50t8 -43.5t15 -34.5h-184q-7 11 -11.5 33t-7 50.5t-2.5 30.5
q-2 33 -6 54t-14.5 45t-31.5 35.5t-52 11.5h-141v-260h-186zM297 -155v105h154v-81q0 -103 -140 -103v42q27 3 39 11t16 26h-69z" />
    <glyph glyph-name="rcommaaccent" unicode="&#x157;" horiz-adv-x="426" 
d="M63 0v519h165v-91h2q38 101 156 101q23 0 40 -4v-155q-33 10 -65 10q-60 0 -94 -35.5t-34 -87.5v-257h-170zM71 -155v105h154v-81q0 -103 -140 -103v42q27 3 39 11t16 26h-69z" />
    <glyph glyph-name="Rcaron" unicode="&#x158;" horiz-adv-x="722" 
d="M250 565v-161h156q86 0 86 84q0 38 -26.5 57.5t-67.5 19.5h-148zM64 0v714h364q49 0 92 -11.5t79.5 -34.5t57.5 -63t21 -92q0 -61 -28.5 -109.5t-83.5 -69.5v-2q93 -24 104 -171q0 -2 2.5 -33t4.5 -50t8 -43.5t15 -34.5h-184q-7 11 -11.5 33t-7 50.5t-2.5 30.5
q-2 33 -6 54t-14.5 45t-31.5 35.5t-52 11.5h-141v-260h-186zM427 762h-152l-112 149h128l60 -80l60 80h128z" />
    <glyph glyph-name="rcaron" unicode="&#x159;" horiz-adv-x="426" 
d="M63 0v519h165v-91h2q38 101 156 101q23 0 40 -4v-155q-33 10 -65 10q-60 0 -94 -35.5t-34 -87.5v-257h-170zM320 576h-152l-112 149h128l60 -80l60 80h128z" />
    <glyph glyph-name="Sacute" unicode="&#x15a;" horiz-adv-x="667" 
d="M23 240h186q3 -60 37 -85.5t98 -25.5q47 0 80.5 18t33.5 55q0 18 -10 32t-34 24.5t-42.5 16.5t-59 16t-59.5 15q-45 13 -76.5 26.5t-64.5 37t-50.5 59.5t-17.5 83q0 74 46 125t109.5 71.5t135.5 20.5q117 0 201.5 -59t84.5 -171h-186q2 44 -32.5 65t-82.5 21
q-36 0 -63 -14.5t-27 -46.5q0 -16 10.5 -28t33.5 -21t44 -15t59 -15t60 -15q44 -12 76.5 -26.5t64.5 -38t49 -59.5t17 -82q0 -65 -26 -113t-71.5 -74.5t-98.5 -39t-115 -12.5q-86 0 -153.5 24.5t-112 84t-44.5 146.5zM370 911h180l-157 -149h-120z" />
    <glyph glyph-name="sacute" unicode="&#x15b;" horiz-adv-x="556" 
d="M27 171h162q0 -37 28 -58q24 -18 63 -18q29 0 54.5 14t25.5 41q0 12 -5 20.5t-17 14.5t-18.5 8.5t-23.5 6.5t-19 5q-16 4 -54 12t-57 13t-48.5 17.5t-44 27.5t-26 40.5t-11.5 59.5q0 44 22 76.5t58.5 49.5t75.5 25t81 8q46 0 85 -7.5t74.5 -25.5t56.5 -52.5t23 -82.5
h-157q0 32 -22 45q-19 13 -54 13q-73 0 -73 -39q0 -14 11 -24.5t35.5 -18.5t42.5 -12t54.5 -11t48.5 -9q48 -10 79.5 -36.5t42 -52.5t10.5 -51q0 -66 -39 -109t-92.5 -59.5t-117.5 -16.5q-68 0 -121 15.5t-92 58.5t-41 112zM307 725h180l-157 -149h-120z" />
    <glyph glyph-name="Scircumflex" unicode="&#x15c;" horiz-adv-x="667" 
d="M23 240h186q3 -60 37 -85.5t98 -25.5q47 0 80.5 18t33.5 55q0 18 -10 32t-34 24.5t-42.5 16.5t-59 16t-59.5 15q-45 13 -76.5 26.5t-64.5 37t-50.5 59.5t-17.5 83q0 74 46 125t109.5 71.5t135.5 20.5q117 0 201.5 -59t84.5 -171h-186q2 44 -32.5 65t-82.5 21
q-36 0 -63 -14.5t-27 -46.5q0 -16 10.5 -28t33.5 -21t44 -15t59 -15t60 -15q44 -12 76.5 -26.5t64.5 -38t49 -59.5t17 -82q0 -65 -26 -113t-71.5 -74.5t-98.5 -39t-115 -12.5q-86 0 -153.5 24.5t-112 84t-44.5 146.5zM336 842l-60 -80h-128l112 149h152l112 -149h-128z" />
    <glyph glyph-name="scircumflex" unicode="&#x15d;" horiz-adv-x="556" 
d="M27 171h162q0 -37 28 -58q24 -18 63 -18q29 0 54.5 14t25.5 41q0 12 -5 20.5t-17 14.5t-18.5 8.5t-23.5 6.5t-19 5q-16 4 -54 12t-57 13t-48.5 17.5t-44 27.5t-26 40.5t-11.5 59.5q0 44 22 76.5t58.5 49.5t75.5 25t81 8q46 0 85 -7.5t74.5 -25.5t56.5 -52.5t23 -82.5
h-157q0 32 -22 45q-19 13 -54 13q-73 0 -73 -39q0 -14 11 -24.5t35.5 -18.5t42.5 -12t54.5 -11t48.5 -9q48 -10 79.5 -36.5t42 -52.5t10.5 -51q0 -66 -39 -109t-92.5 -59.5t-117.5 -16.5q-68 0 -121 15.5t-92 58.5t-41 112zM287 656l-60 -80h-128l112 149h152l112 -149h-128
z" />
    <glyph glyph-name="Scedilla" unicode="&#x15e;" horiz-adv-x="667" 
d="M23 240h186q3 -60 37 -85.5t98 -25.5q47 0 80.5 18t33.5 55q0 18 -10 32t-34 24.5t-42.5 16.5t-59 16t-59.5 15q-45 13 -76.5 26.5t-64.5 37t-50.5 59.5t-17.5 83q0 74 46 125t109.5 71.5t135.5 20.5q117 0 201.5 -59t84.5 -171h-186q2 44 -32.5 65t-82.5 21
q-36 0 -63 -14.5t-27 -46.5q0 -16 10.5 -28t33.5 -21t44 -15t59 -15t60 -15q44 -12 76.5 -26.5t64.5 -38t49 -59.5t17 -82q0 -96 -53.5 -152t-142.5 -75q-50 -11 -99 -12l-30 -45l2 -2q16 5 40 5q33 0 59 -19.5t26 -60.5q0 -97 -128 -97q-66 0 -118 31l19 45q41 -19 82 -19
q51 0 51 35q0 38 -43 38q-17 0 -40 -7l-22 19l48 79q-41 3 -80 12q-87 22 -139.5 83t-52.5 158z" />
    <glyph glyph-name="Scedilla" unicode="&#xf6c1;" horiz-adv-x="667" 
d="M23 240h186q3 -60 37 -85.5t98 -25.5q47 0 80.5 18t33.5 55q0 18 -10 32t-34 24.5t-42.5 16.5t-59 16t-59.5 15q-45 13 -76.5 26.5t-64.5 37t-50.5 59.5t-17.5 83q0 74 46 125t109.5 71.5t135.5 20.5q117 0 201.5 -59t84.5 -171h-186q2 44 -32.5 65t-82.5 21
q-36 0 -63 -14.5t-27 -46.5q0 -16 10.5 -28t33.5 -21t44 -15t59 -15t60 -15q44 -12 76.5 -26.5t64.5 -38t49 -59.5t17 -82q0 -96 -53.5 -152t-142.5 -75q-50 -11 -99 -12l-30 -45l2 -2q16 5 40 5q33 0 59 -19.5t26 -60.5q0 -97 -128 -97q-66 0 -118 31l19 45q41 -19 82 -19
q51 0 51 35q0 38 -43 38q-17 0 -40 -7l-22 19l48 79q-41 3 -80 12q-87 22 -139.5 83t-52.5 158z" />
    <glyph glyph-name="scedilla" unicode="&#x15f;" horiz-adv-x="556" 
d="M27 171h162q0 -37 28 -58q24 -18 63 -18q29 0 54.5 14t25.5 41q0 12 -5 20.5t-17 14.5t-18.5 8.5t-23.5 6.5t-19 5q-16 4 -54 12t-57 13t-48.5 17.5t-44 27.5t-26 40.5t-11.5 59.5q0 44 22 76.5t58.5 49.5t75.5 25t81 8q46 0 85 -7.5t74.5 -25.5t56.5 -52.5t23 -82.5
h-157q0 32 -22 45q-19 13 -54 13q-73 0 -73 -39q0 -14 11 -24.5t35.5 -18.5t42.5 -12t54.5 -11t48.5 -9q48 -10 79.5 -36.5t42 -52.5t10.5 -51q0 -73 -45 -117t-116 -58q-36 -8 -78 -10l-30 -45l2 -2q16 5 40 5q33 0 59 -19.5t26 -60.5q0 -97 -128 -97q-66 0 -118 31l19 45
q41 -19 82 -19q51 0 51 35q0 38 -43 38q-17 0 -40 -7l-22 19l49 79q-16 1 -48 7q-71 13 -115.5 57t-47.5 120z" />
    <glyph glyph-name="scedilla" unicode="&#xf6c2;" horiz-adv-x="556" 
d="M27 171h162q0 -37 28 -58q24 -18 63 -18q29 0 54.5 14t25.5 41q0 12 -5 20.5t-17 14.5t-18.5 8.5t-23.5 6.5t-19 5q-16 4 -54 12t-57 13t-48.5 17.5t-44 27.5t-26 40.5t-11.5 59.5q0 44 22 76.5t58.5 49.5t75.5 25t81 8q46 0 85 -7.5t74.5 -25.5t56.5 -52.5t23 -82.5
h-157q0 32 -22 45q-19 13 -54 13q-73 0 -73 -39q0 -14 11 -24.5t35.5 -18.5t42.5 -12t54.5 -11t48.5 -9q48 -10 79.5 -36.5t42 -52.5t10.5 -51q0 -73 -45 -117t-116 -58q-36 -8 -78 -10l-30 -45l2 -2q16 5 40 5q33 0 59 -19.5t26 -60.5q0 -97 -128 -97q-66 0 -118 31l19 45
q41 -19 82 -19q51 0 51 35q0 38 -43 38q-17 0 -40 -7l-22 19l49 79q-16 1 -48 7q-71 13 -115.5 57t-47.5 120z" />
    <glyph glyph-name="Scaron" unicode="&#x160;" horiz-adv-x="667" 
d="M23 240h186q3 -60 37 -85.5t98 -25.5q47 0 80.5 18t33.5 55q0 18 -10 32t-34 24.5t-42.5 16.5t-59 16t-59.5 15q-45 13 -76.5 26.5t-64.5 37t-50.5 59.5t-17.5 83q0 74 46 125t109.5 71.5t135.5 20.5q117 0 201.5 -59t84.5 -171h-186q2 44 -32.5 65t-82.5 21
q-36 0 -63 -14.5t-27 -46.5q0 -16 10.5 -28t33.5 -21t44 -15t59 -15t60 -15q44 -12 76.5 -26.5t64.5 -38t49 -59.5t17 -82q0 -65 -26 -113t-71.5 -74.5t-98.5 -39t-115 -12.5q-86 0 -153.5 24.5t-112 84t-44.5 146.5zM413 762h-152l-112 149h128l60 -80l60 80h128z" />
    <glyph glyph-name="scaron" unicode="&#x161;" horiz-adv-x="556" 
d="M27 171h162q0 -37 28 -58q24 -18 63 -18q29 0 54.5 14t25.5 41q0 12 -5 20.5t-17 14.5t-18.5 8.5t-23.5 6.5t-19 5q-16 4 -54 12t-57 13t-48.5 17.5t-44 27.5t-26 40.5t-11.5 59.5q0 44 22 76.5t58.5 49.5t75.5 25t81 8q46 0 85 -7.5t74.5 -25.5t56.5 -52.5t23 -82.5
h-157q0 32 -22 45q-19 13 -54 13q-73 0 -73 -39q0 -14 11 -24.5t35.5 -18.5t42.5 -12t54.5 -11t48.5 -9q48 -10 79.5 -36.5t42 -52.5t10.5 -51q0 -66 -39 -109t-92.5 -59.5t-117.5 -16.5q-68 0 -121 15.5t-92 58.5t-41 112zM357 576h-152l-112 149h128l60 -80l60 80h128z
" />
    <glyph glyph-name="Tcommaaccent" unicode="&#x162;" horiz-adv-x="648" 
d="M630 714v-160h-213v-554h-186v554h-213v160h612zM247 -155v105h154v-81q0 -103 -140 -103v42q27 3 39 11t16 26h-69z" />
    <glyph glyph-name="tcommaaccent" unicode="&#x163;" horiz-adv-x="389" 
d="M370 519v-110h-105v-236q0 -29 15 -39.5t46 -10.5q8 0 22 1t22 1v-125q-12 0 -44 -2.5t-49 -2.5q-108 0 -145 38.5t-37 144.5v231h-86v110h86v157h170v-157h105zM155 -155v105h154v-81q0 -103 -140 -103v42q27 3 39 11t16 26h-69z" />
    <glyph glyph-name="Tcaron" unicode="&#x164;" horiz-adv-x="648" 
d="M630 714v-160h-213v-554h-186v554h-213v160h612zM400 762h-152l-112 149h128l60 -80l60 80h128z" />
    <glyph glyph-name="tcaron" unicode="&#x165;" horiz-adv-x="489" 
d="M396 714h157l-88 -149h-104zM370 519v-110h-105v-236q0 -29 15 -39.5t46 -10.5q8 0 22 1t22 1v-125q-12 0 -44 -2.5t-49 -2.5q-108 0 -145 38.5t-37 144.5v231h-86v110h86v157h170v-157h105z" />
    <glyph glyph-name="Tbar" unicode="&#x166;" horiz-adv-x="648" 
d="M630 714v-160h-213v-131h148v-86h-148v-337h-186v337h-151v86h151v131h-213v160h612z" />
    <glyph glyph-name="tbar" unicode="&#x167;" horiz-adv-x="389" 
d="M370 519v-110h-105v-86h114v-86h-114v-64q0 -29 15 -39.5t46 -10.5q8 0 22 1t22 1v-125q-12 0 -44 -2.5t-49 -2.5q-108 0 -145 38.5t-37 144.5v59h-95v86h95v86h-86v110h86v157h170v-157h105z" />
    <glyph glyph-name="Utilde" unicode="&#x168;" horiz-adv-x="741" 
d="M681 714v-419q0 -157 -75.5 -233.5t-235.5 -76.5t-235.5 76.5t-75.5 233.5v419h186v-430q0 -71 29 -105t96 -34t96 34t29 105v430h186zM487 904h71q-7 -56 -36.5 -91.5t-82.5 -35.5q-33 0 -81 18t-64 18q-31 0 -44 -45h-71q7 54 39 95t82 41q31 0 80 -20q48 -21 65 -21
q30 0 42 41z" />
    <glyph glyph-name="utilde" unicode="&#x169;" horiz-adv-x="630" 
d="M573 519v-519h-165v71h-2q-24 -39 -68 -62.5t-90 -23.5q-106 0 -149 56.5t-43 165.5v312h170v-301q0 -50 20.5 -71.5t63.5 -21.5q35 0 64 27t29 89v278h170zM433 718h71q-7 -56 -36.5 -91.5t-82.5 -35.5q-33 0 -81 18t-64 18q-31 0 -44 -45h-71q7 54 39 95t82 41
q31 0 80 -20q48 -21 65 -21q30 0 42 41z" />
    <glyph glyph-name="Umacron" unicode="&#x16a;" horiz-adv-x="741" 
d="M681 714v-419q0 -157 -75.5 -233.5t-235.5 -76.5t-235.5 76.5t-75.5 233.5v419h186v-430q0 -71 29 -105t96 -34t96 34t29 105v430h186zM534 793h-325v86h325v-86z" />
    <glyph glyph-name="umacron" unicode="&#x16b;" horiz-adv-x="630" 
d="M573 519v-519h-165v71h-2q-24 -39 -68 -62.5t-90 -23.5q-106 0 -149 56.5t-43 165.5v312h170v-301q0 -50 20.5 -71.5t63.5 -21.5q35 0 64 27t29 89v278h170zM477 607h-325v86h325v-86z" />
    <glyph glyph-name="Ubreve" unicode="&#x16c;" horiz-adv-x="741" 
d="M681 714v-419q0 -157 -75.5 -233.5t-235.5 -76.5t-235.5 76.5t-75.5 233.5v419h186v-430q0 -71 29 -105t96 -34t96 34t29 105v430h186zM198 913h71q10 -68 103 -68t103 68h71q0 -69 -49 -111.5t-125 -42.5t-125 42.5t-49 111.5z" />
    <glyph glyph-name="ubreve" unicode="&#x16d;" horiz-adv-x="630" 
d="M573 519v-519h-165v71h-2q-24 -39 -68 -62.5t-90 -23.5q-106 0 -149 56.5t-43 165.5v312h170v-301q0 -50 20.5 -71.5t63.5 -21.5q35 0 64 27t29 89v278h170zM141 727h71q10 -68 103 -68t103 68h71q0 -69 -49 -111.5t-125 -42.5t-125 42.5t-49 111.5z" />
    <glyph glyph-name="Uring" unicode="&#x16e;" horiz-adv-x="741" 
d="M681 714v-419q0 -157 -75.5 -233.5t-235.5 -76.5t-235.5 76.5t-75.5 233.5v419h186v-430q0 -71 29 -105t96 -34t96 34t29 105v430h186zM369 792q22 0 37 15t15 37q0 23 -15 37.5t-37 14.5t-37 -14.5t-15 -37.5q0 -22 15 -37t37 -15zM369 740q-46 -3 -77.5 29t-29.5 75
q0 47 30.5 75.5t76.5 28.5q47 0 77 -28.5t30 -75.5q0 -45 -30.5 -74.5t-76.5 -29.5z" />
    <glyph glyph-name="uring" unicode="&#x16f;" horiz-adv-x="630" 
d="M573 519v-519h-165v71h-2q-24 -39 -68 -62.5t-90 -23.5q-106 0 -149 56.5t-43 165.5v312h170v-301q0 -50 20.5 -71.5t63.5 -21.5q35 0 64 27t29 89v278h170zM315 616q22 0 37 15t15 37q0 23 -15 37.5t-37 14.5t-37 -14.5t-15 -37.5q0 -22 15 -37t37 -15zM315 564
q-46 -3 -77.5 29t-29.5 75q0 47 30.5 75.5t76.5 28.5q47 0 77 -28.5t30 -75.5q0 -45 -30.5 -74.5t-76.5 -29.5z" />
    <glyph glyph-name="Uhungarumlaut" unicode="&#x170;" horiz-adv-x="741" 
d="M681 714v-419q0 -157 -75.5 -233.5t-235.5 -76.5t-235.5 76.5t-75.5 233.5v419h186v-430q0 -71 29 -105t96 -34t96 34t29 105v430h186zM485 911h125l-120 -149h-86zM320 911h125l-120 -149h-86z" />
    <glyph glyph-name="uhungarumlaut" unicode="&#x171;" horiz-adv-x="630" 
d="M573 519v-519h-165v71h-2q-24 -39 -68 -62.5t-90 -23.5q-106 0 -149 56.5t-43 165.5v312h170v-301q0 -50 20.5 -71.5t63.5 -21.5q35 0 64 27t29 89v278h170zM430 725h125l-120 -149h-86zM265 725h125l-120 -149h-86z" />
    <glyph glyph-name="Uogonek" unicode="&#x172;" horiz-adv-x="741" 
d="M681 714v-419q0 -155 -75 -233q-63 -66 -191 -75q-32 -32 -51 -58t-19 -53q0 -33 34 -33q16 0 27.5 5.5t31.5 24.5l53 -25q-24 -39 -61 -60.5t-74 -21.5q-50 1 -78 20t-32 66q0 52 51 103q23 21 37 31q-134 7 -201 76q-74 79 -74 233v419h186v-430q0 -71 29 -105t96 -34
t96 34t29 105v430h186z" />
    <glyph glyph-name="uogonek" unicode="&#x173;" horiz-adv-x="630" 
d="M573 0h-97q-43 -47 -60 -73t-17 -51q0 -33 31 -33q15 0 25.5 5.5t28.5 24.5l49 -25q-23 -39 -56.5 -60.5t-67.5 -21.5q-46 1 -71.5 20t-29.5 66q0 35 20 69.5t80 78.5v71h-2q-24 -39 -68 -62.5t-90 -23.5q-106 0 -149 56.5t-43 165.5v312h170v-301q0 -50 20.5 -71.5
t63.5 -21.5q35 0 64 27t29 89v278h170v-519z" />
    <glyph glyph-name="Wcircumflex" unicode="&#x174;" horiz-adv-x="963" 
d="M963 714l-197 -714h-186l-98 492h-2l-98 -492h-189l-193 714h186l101 -522h2l105 522h175l105 -522h2l101 522h186zM482 842l-60 -80h-128l112 149h152l112 -149h-128z" />
    <glyph glyph-name="wcircumflex" unicode="&#x175;" horiz-adv-x="833" 
d="M833 519l-162 -519h-172l-82 345h-2l-81 -345h-172l-162 519h172l87 -336h2l74 336h162l76 -335h2l85 335h173zM416 656l-60 -80h-128l112 149h152l112 -149h-128z" />
    <glyph glyph-name="Ycircumflex" unicode="&#x176;" horiz-adv-x="667" 
d="M687 714l-260 -448v-266h-186v266l-260 448h211l142 -290l142 290h211zM335 842l-60 -80h-128l112 149h152l112 -149h-128z" />
    <glyph glyph-name="ycircumflex" unicode="&#x177;" horiz-adv-x="537" 
d="M545 519l-205 -565q-28 -80 -75.5 -104t-141.5 -24h-80v138h59q30 0 49 15.5t19 42.5q0 10 -5.5 30t-11.5 37t-15 40.5t-11 28.5l-134 361h180l98 -338h2l98 338h174zM272 656l-60 -80h-128l112 149h152l112 -149h-128z" />
    <glyph glyph-name="Ydieresis" unicode="&#x178;" horiz-adv-x="667" 
d="M687 714l-260 -448v-266h-186v266l-260 448h211l142 -290l142 290h211zM154 784v125h150v-125h-150zM517 784h-150v125h150v-125z" />
    <glyph glyph-name="Zacute" unicode="&#x179;" horiz-adv-x="667" 
d="M24 0v152l366 402h-344v160h584v-144l-375 -410h388v-160h-619zM361 911h180l-157 -149h-120z" />
    <glyph glyph-name="zacute" unicode="&#x17a;" horiz-adv-x="537" 
d="M22 0v132l259 257h-238v130h454v-129l-259 -260h278v-130h-494zM300 725h180l-157 -149h-120z" />
    <glyph glyph-name="Zdotaccent" unicode="&#x17b;" horiz-adv-x="667" 
d="M24 0v152l366 402h-344v160h584v-144l-375 -410h388v-160h-619zM415 774h-150v125h150v-125z" />
    <glyph glyph-name="zdotaccent" unicode="&#x17c;" horiz-adv-x="537" 
d="M22 0v132l259 257h-238v130h454v-129l-259 -260h278v-130h-494zM351 588h-150v125h150v-125z" />
    <glyph glyph-name="Zcaron" unicode="&#x17d;" horiz-adv-x="667" 
d="M24 0v152l366 402h-344v160h584v-144l-375 -410h388v-160h-619zM412 762h-152l-112 149h128l60 -80l60 80h128z" />
    <glyph glyph-name="zcaron" unicode="&#x17e;" horiz-adv-x="537" 
d="M22 0v132l259 257h-238v130h454v-129l-259 -260h278v-130h-494zM348 576h-152l-112 149h128l60 -80l60 80h128z" />
    <glyph glyph-name="florin" unicode="&#x192;" horiz-adv-x="630" 
d="M157 421h97l26 138q17 94 70 132t151 38q12 0 25 -0.5t29 -1.5t25 -1l-23 -125q-27 3 -46 3q-27 0 -40.5 -15.5t-21.5 -54.5l-21 -113h96l-20 -110h-96l-57 -305q-20 -103 -69 -141.5t-153 -38.5q-13 0 -38 1.5t-39 1.5l19 125q24 -3 42 -3q28 0 42 12.5t22 49.5l57 298
h-97z" />
    <glyph glyph-name="Scommaaccent" unicode="&#x218;" horiz-adv-x="667" 
d="M23 240h186q3 -60 37 -85.5t98 -25.5q47 0 80.5 18t33.5 55q0 18 -10 32t-34 24.5t-42.5 16.5t-59 16t-59.5 15q-45 13 -76.5 26.5t-64.5 37t-50.5 59.5t-17.5 83q0 74 46 125t109.5 71.5t135.5 20.5q117 0 201.5 -59t84.5 -171h-186q2 44 -32.5 65t-82.5 21
q-36 0 -63 -14.5t-27 -46.5q0 -16 10.5 -28t33.5 -21t44 -15t59 -15t60 -15q44 -12 76.5 -26.5t64.5 -38t49 -59.5t17 -82q0 -65 -26 -113t-71.5 -74.5t-98.5 -39t-115 -12.5q-86 0 -153.5 24.5t-112 84t-44.5 146.5zM254 -155v105h154v-81q0 -103 -140 -103v42q27 3 39 11
t16 26h-69z" />
    <glyph glyph-name="scommaaccent" unicode="&#x219;" horiz-adv-x="556" 
d="M27 171h162q0 -37 28 -58q24 -18 63 -18q29 0 54.5 14t25.5 41q0 12 -5 20.5t-17 14.5t-18.5 8.5t-23.5 6.5t-19 5q-16 4 -54 12t-57 13t-48.5 17.5t-44 27.5t-26 40.5t-11.5 59.5q0 44 22 76.5t58.5 49.5t75.5 25t81 8q46 0 85 -7.5t74.5 -25.5t56.5 -52.5t23 -82.5
h-157q0 32 -22 45q-19 13 -54 13q-73 0 -73 -39q0 -14 11 -24.5t35.5 -18.5t42.5 -12t54.5 -11t48.5 -9q48 -10 79.5 -36.5t42 -52.5t10.5 -51q0 -66 -39 -109t-92.5 -59.5t-117.5 -16.5q-68 0 -121 15.5t-92 58.5t-41 112zM201 -155v105h154v-81q0 -103 -140 -103v42
q27 3 39 11t16 26h-69z" />
    <glyph glyph-name="uni021A" unicode="&#x21a;" horiz-adv-x="648" 
d="M630 714v-160h-213v-554h-186v554h-213v160h612zM247 -155v105h154v-81q0 -103 -140 -103v42q27 3 39 11t16 26h-69z" />
    <glyph glyph-name="uni021B" unicode="&#x21b;" horiz-adv-x="389" 
d="M370 519v-110h-105v-236q0 -29 15 -39.5t46 -10.5q8 0 22 1t22 1v-125q-12 0 -44 -2.5t-49 -2.5q-108 0 -145 38.5t-37 144.5v231h-86v110h86v157h170v-157h105zM155 -155v105h154v-81q0 -103 -140 -103v42q27 3 39 11t16 26h-69z" />
    <glyph glyph-name="circumflex" unicode="&#x2c6;" 
d="M148 656l-60 -80h-128l112 149h152l112 -149h-128z" />
    <glyph glyph-name="caron" unicode="&#x2c7;" 
d="M224 576h-152l-112 149h128l60 -80l60 80h128z" />
    <glyph glyph-name="uni02C9" unicode="&#x2c9;" 
d="M311 607h-325v86h325v-86z" />
    <glyph glyph-name="breve" unicode="&#x2d8;" 
d="M-26 727h71q10 -68 103 -68t103 68h71q0 -69 -49 -111.5t-125 -42.5t-125 42.5t-49 111.5z" />
    <glyph glyph-name="dotaccent" unicode="&#x2d9;" 
d="M223 588h-150v125h150v-125z" />
    <glyph glyph-name="ring" unicode="&#x2da;" 
d="M148 616q22 0 37 15t15 37q0 23 -15 37.5t-37 14.5t-37 -14.5t-15 -37.5q0 -22 15 -37t37 -15zM148 564q-46 -3 -77.5 29t-29.5 75q0 47 30.5 75.5t76.5 28.5q47 0 77 -28.5t30 -75.5q0 -45 -30.5 -74.5t-76.5 -29.5z" />
    <glyph glyph-name="ogonek" unicode="&#x2db;" 
d="M136 0h74q-47 -47 -65.5 -73t-18.5 -51q0 -33 34 -33q16 0 27.5 5.5t31.5 24.5l53 -25q-24 -39 -61 -60.5t-74 -21.5q-50 1 -78 20t-32 66q0 75 109 148z" />
    <glyph glyph-name="tilde" unicode="&#x2dc;" 
d="M267 718h71q-7 -56 -36.5 -91.5t-82.5 -35.5q-33 0 -81 18t-64 18q-31 0 -44 -45h-71q7 54 39 95t82 41q31 0 80 -20q48 -21 65 -21q30 0 42 41z" />
    <glyph glyph-name="hungarumlaut" unicode="&#x2dd;" 
d="M229 725h125l-120 -149h-86zM64 725h125l-120 -149h-86z" />
    <glyph glyph-name="uni0394" unicode="&#x394;" horiz-adv-x="718" 
d="M706 0h-694l251 712h170zM490 145l-140 396l-130 -396h270z" />
    <glyph glyph-name="uni03A9" unicode="&#x3a9;" horiz-adv-x="776" 
d="M724 415q0 -89 -46.5 -163t-128.5 -91v-21h174v-140h-299v218q65 13 97 61.5t32 118.5q0 77 -43.5 129t-119.5 52t-122 -54t-46 -132q0 -67 32.5 -115t95.5 -60v-218h-299v140h173v21q-83 23 -128 92t-45 160q0 143 97.5 225.5t242.5 82.5q142 0 237.5 -83t95.5 -223z
" />
    <glyph glyph-name="uni03BC" unicode="&#x3bc;" horiz-adv-x="630" 
d="M573 519v-519h-165v71h-2q-24 -39 -68 -62.5t-90 -23.5q-13 0 -22 6v-165h-170v693h170v-301q0 -50 20.5 -71.5t63.5 -21.5q35 0 64 27t29 89v278h170z" />
    <glyph glyph-name="pi" unicode="&#x3c0;" horiz-adv-x="625" 
d="M600 20q-56 -29 -106 -29q-70 0 -97.5 37.5t-27.5 107.5v222h-149v-358h-150v358h-70v137h600v-137h-81v-164q0 -3 -0.5 -13.5t0 -15.5t1.5 -14t3.5 -13.5t6.5 -9.5t11 -7.5t16 -2.5q12 0 43 12v-110z" />
    <glyph glyph-name="endash" unicode="&#x2013;" horiz-adv-x="500" 
d="M0 200v144h500v-144h-500z" />
    <glyph glyph-name="emdash" unicode="&#x2014;" horiz-adv-x="1000" 
d="M130 200v144h740v-144h-740z" />
    <glyph glyph-name="quoteleft" unicode="&#x2018;" 
d="M228 540v-186h-159v166q1 78 40.5 129t118.5 65v-80q-33 -6 -53.5 -32.5t-18.5 -61.5h72z" />
    <glyph glyph-name="quoteright" unicode="&#x2019;" 
d="M69 528v186h159v-166q-1 -78 -40.5 -129t-118.5 -65v80q33 6 53.5 32.5t18.5 61.5h-72z" />
    <glyph glyph-name="quotesinglbase" unicode="&#x201a;" 
d="M69 0v186h159v-166q-1 -78 -40.5 -129t-118.5 -65v80q33 6 53.5 32.5t18.5 61.5h-72z" />
    <glyph glyph-name="quotedblleft" unicode="&#x201c;" horiz-adv-x="500" 
d="M445 540v-186h-159v166q1 78 40.5 129t118.5 65v-80q-33 -6 -53.5 -32.5t-18.5 -61.5h72zM214 540v-186h-159v166q1 78 40.5 129t118.5 65v-80q-33 -6 -53.5 -32.5t-18.5 -61.5h72z" />
    <glyph glyph-name="quotedblright" unicode="&#x201d;" horiz-adv-x="500" 
d="M55 528v186h159v-166q-1 -78 -40.5 -129t-118.5 -65v80q33 6 53.5 32.5t18.5 61.5h-72zM286 528v186h159v-166q-1 -78 -40.5 -129t-118.5 -65v80q33 6 53.5 32.5t18.5 61.5h-72z" />
    <glyph glyph-name="quotedblbase" unicode="&#x201e;" horiz-adv-x="500" 
d="M55 0v186h159v-166q-1 -78 -40.5 -129t-118.5 -65v80q33 6 53.5 32.5t18.5 61.5h-72zM286 0v186h159v-166q-1 -78 -40.5 -129t-118.5 -65v80q33 6 53.5 32.5t18.5 61.5h-72z" />
    <glyph glyph-name="dagger" unicode="&#x2020;" horiz-adv-x="630" 
d="M233 376h-181v144h181v194h164v-194h181v-144h-181v-550h-164v550z" />
    <glyph glyph-name="daggerdbl" unicode="&#x2021;" horiz-adv-x="630" 
d="M397 -174h-164v194h-182v144h182v212h-182v144h182v194h164v-194h181v-144h-181v-212h182v-144h-182v-194z" />
    <glyph glyph-name="bullet" unicode="&#x2022;" horiz-adv-x="500" 
d="M72 357q0 74 52 126t126 52t126.5 -52t52.5 -126t-52.5 -126.5t-126.5 -52.5t-126 52.5t-52 126.5z" />
    <glyph glyph-name="ellipsis" unicode="&#x2026;" horiz-adv-x="1000" 
d="M926 0h-186v186h186v-186zM593 0h-186v186h186v-186zM260 0h-186v186h186v-186z" />
    <glyph glyph-name="perthousand" unicode="&#x2030;" horiz-adv-x="1167" 
d="M169 532q0 -101 46 -101q48 0 48 101q0 103 -47 103t-47 -103zM904 157q0 -101 46 -101q48 0 48 101q0 103 -47 103t-47 -103zM806 157q0 77 35 125.5t110 48.5q145 0 145 -174q0 -78 -35.5 -125t-110.5 -47q-76 0 -110 47t-34 125zM556 157q0 -101 46 -101q48 0 48 101
q0 103 -47 103t-47 -103zM458 157q0 77 35 125.5t110 48.5q145 0 145 -174q0 -78 -35.5 -125t-110.5 -47q-76 0 -110 47t-34 125zM71 532q0 77 35 125.5t110 48.5q145 0 145 -174q0 -78 -35.5 -125t-110.5 -47q-76 0 -110 47t-34 125zM259 -27h-99l404 751h99z" />
    <glyph glyph-name="guilsinglleft" unicode="&#x2039;" horiz-adv-x="241" 
d="M41 194v152l159 128v-137l-86 -67l86 -66v-137z" />
    <glyph glyph-name="guilsinglright" unicode="&#x203a;" horiz-adv-x="241" 
d="M200 347v-152l-159 -128v137l86 67l-86 66v137z" />
    <glyph glyph-name="fraction" unicode="&#x2044;" horiz-adv-x="167" 
d="M-70 -27h-99l411 751h99z" />
    <glyph glyph-name="afii61289" unicode="&#x2113;" horiz-adv-x="500" 
d="M465 56q-85 -70 -181 -70q-82 0 -127.5 42.5t-45.5 108.5v25l-54 -45h-2l-54 84l109 86v233q0 85 54 143t138 58q73 0 116.5 -42.5t43.5 -112.5q0 -77 -47 -149t-149 -154v-101q0 -33 16.5 -48t40.5 -15q36 0 88 37h2zM336 557q0 26 -9.5 44t-25.5 18q-15 0 -25 -19.5
t-10 -49.5v-157q70 71 70 164z" />
    <glyph glyph-name="trademark" unicode="&#x2122;" horiz-adv-x="1000" 
d="M625 714l89 -239l89 239h156v-412h-110v270h-2l-89 -270h-88l-89 270h-2v-270h-110v412h156zM386 714v-95h-110v-317h-125v317h-110v95h345z" />
    <glyph glyph-name="Omega" unicode="&#x2126;" horiz-adv-x="776" 
d="M724 415q0 -89 -46.5 -163t-128.5 -91v-21h174v-140h-299v218q65 13 97 61.5t32 118.5q0 77 -43.5 129t-119.5 52t-122 -54t-46 -132q0 -67 32.5 -115t95.5 -60v-218h-299v140h173v21q-83 23 -128 92t-45 160q0 143 97.5 225.5t242.5 82.5q142 0 237.5 -83t95.5 -223z
" />
    <glyph glyph-name="estimated" unicode="&#x212e;" horiz-adv-x="600" 
d="M561 259h-404v-181q59 -59 145 -59q122 0 193 120l35 -21q-46 -72 -98 -103.5t-130 -31.5q-115 0 -186.5 79t-71.5 197q0 119 71 197.5t187 78.5q115 0 186.5 -77t72.5 -199zM157 295h291v145q-63 60 -147 60t-144 -60v-145z" />
    <glyph glyph-name="partialdiff" unicode="&#x2202;" horiz-adv-x="588" 
d="M544 358q0 -71 -11.5 -131.5t-39 -117.5t-81 -90t-129.5 -33q-106 0 -172.5 64.5t-66.5 171.5q0 98 63.5 163.5t160.5 65.5q64 0 126 -42q0 34 -5.5 65.5t-18.5 62.5t-38.5 50t-61.5 19q-60 0 -120 -57l-81 91q90 81 197 81q76 0 131.5 -31t86.5 -84t45.5 -115t14.5 -133
zM391 294q-45 45 -98 45q-49 0 -76.5 -36.5t-27.5 -87.5q0 -47 24 -82.5t70 -35.5q108 0 108 197z" />
    <glyph glyph-name="Delta" unicode="&#x2206;" horiz-adv-x="718" 
d="M706 0h-694l251 712h170zM490 145l-140 396l-130 -396h270z" />
    <glyph glyph-name="product" unicode="&#x220f;" horiz-adv-x="757" 
d="M708 -214h-152v851h-354v-851h-153v1000h659v-1000z" />
    <glyph glyph-name="summation" unicode="&#x2211;" horiz-adv-x="698" 
d="M668 -214h-639v130l289 377l-277 362v131h615v-150h-413l253 -343l-269 -357h441v-150z" />
    <glyph glyph-name="minus" unicode="&#x2212;" horiz-adv-x="600" 
d="M552 181h-504v144h504v-144z" />
    <glyph glyph-name="uni2215" unicode="&#x2215;" horiz-adv-x="167" 
d="M-70 -27h-99l411 751h99z" />
    <glyph glyph-name="uni2219" unicode="&#x2219;" horiz-adv-x="315" 
d="M65 286q0 38 27.5 65.5t65.5 27.5t65.5 -27.5t27.5 -65.5t-27.5 -65.5t-65.5 -27.5t-65.5 27.5t-27.5 65.5z" />
    <glyph glyph-name="radical" unicode="&#x221a;" horiz-adv-x="603" 
d="M609 786l-224 -1000h-137l-142 290l-57 -27l-56 118l193 88l106 -236l156 767h161z" />
    <glyph glyph-name="infinity" unicode="&#x221e;" horiz-adv-x="881" 
d="M836 274q0 -94 -53.5 -155t-146.5 -61q-61 0 -106 30.5t-90 86.5q-45 -57 -88 -86.5t-103 -29.5q-94 0 -149 60t-55 155q0 93 53.5 152t145.5 59q63 0 107.5 -32t88.5 -93q43 61 88 93t109 32q92 0 145.5 -59t53.5 -152zM708 272q0 36 -20.5 58t-55.5 22q-51 0 -115 -83
q55 -78 118 -78q35 0 54 23t19 58zM363 269q-62 83 -118 83q-34 0 -53.5 -23.5t-19.5 -57.5q0 -35 20 -57t55 -22q24 0 47 13t37 27t32 37z" />
    <glyph glyph-name="integral" unicode="&#x222b;" horiz-adv-x="657" 
d="M561 688q0 -31 -20 -51t-51 -20q-30 0 -45 16t-17 35.5t-7 35.5t-18 16q-19 0 -19 -40q0 -32 4 -96.5t4 -96.5l1 -317v-34q-1 -32 0 -66t-3 -68t-10.5 -65.5t-21 -59t-34.5 -48t-51.5 -32t-72.5 -11.5q-52 0 -94.5 26t-42.5 75q0 30 19.5 48.5t49.5 18.5t45 -16t17 -35.5
t7 -35.5t17 -16q20 0 20 40q0 28 -4 82t-4 82v410q0 43 1.5 73t7 71t18.5 69t33.5 54.5t54 39.5t78.5 13q51 0 94.5 -25t43.5 -72z" />
    <glyph glyph-name="approxequal" unicode="&#x2248;" horiz-adv-x="593" 
d="M578 497q-3 -47 -19.5 -93t-53.5 -82t-86 -36q-37 0 -125.5 30.5t-126.5 30.5q-22 0 -37 -16t-17 -39h-98q0 76 44.5 142.5t117.5 66.5q39 0 125 -29t124 -29q48 0 53 54h99zM578 252q-3 -49 -18 -94.5t-50.5 -81.5t-85.5 -36q-37 0 -132.5 30.5t-125.5 30.5
q-23 0 -37 -15.5t-16 -38.5h-98q0 71 43.5 140t110.5 69q24 0 54.5 -7t73.5 -20.5t53 -16.5q53 -16 72 -16q27 0 38.5 13.5t17.5 42.5h100z" />
    <glyph glyph-name="notequal" unicode="&#x2260;" horiz-adv-x="593" 
d="M568 75h-286l-79 -162l-133 66l47 96h-92v151h167l45 90h-212v152h287l79 161l132 -66l-46 -95h91v-152h-166l-45 -90h211v-151z" />
    <glyph glyph-name="lessequal" unicode="&#x2264;" horiz-adv-x="593" 
d="M568 125l-543 165v150l543 152v-155l-332 -72l332 -84v-156zM568 -51h-543v152h543v-152z" />
    <glyph glyph-name="greaterequal" unicode="&#x2265;" horiz-adv-x="593" 
d="M568 290l-543 -165v156l331 84l-331 72v155l543 -152v-150zM568 -51h-543v152h543v-152z" />
    <glyph glyph-name="lozenge" unicode="&#x25ca;" horiz-adv-x="593" 
d="M558 356l-194 -391h-138l-191 391l193 391h136zM401 356l-105 237l-106 -237l106 -237z" />
    <glyph glyph-name="commaaccent" unicode="&#xf004;" horiz-adv-x="316" 
d="M78 -155v105h154v-81q0 -103 -140 -103v42q27 3 39 11t16 26h-69z" />
    <glyph glyph-name="commaaccent" unicode="&#xf6c3;" horiz-adv-x="316" 
d="M78 -155v105h154v-81q0 -103 -140 -103v42q27 3 39 11t16 26h-69z" />
    <glyph glyph-name="dotlessj" unicode="&#xf6be;" 
d="M233 519v-519q0 -96 -40 -135t-132 -39h-86v138h34q28 1 41 11.5t13 36.5v507h170z" />
    <glyph glyph-name="dotlessj" unicode="&#xfb0f;" 
d="M233 519v-519q0 -96 -40 -135t-132 -39h-86v138h34q28 1 41 11.5t13 36.5v507h170z" />
    <glyph glyph-name="uniF8FF" unicode="&#xf8ff;" horiz-adv-x="512" 
d="M222 117h56v67h-56v-67zM225 234h46q0 52 6 72q6 19 43 52q37 34 50 60t13 60q0 59 -35 95t-89 36q-56 0 -92 -34t-43 -103l50 -8q11 95 82 95q31 0 53.5 -24.5t22.5 -60.5q0 -20 -9.5 -37t-40.5 -46q-31 -31 -46 -59q-13 -25 -13 -81zM462 50h-412v617h412v-617z
M512 718h-512v-718h512v718z" />
    <glyph glyph-name="fi" unicode="&#xfb01;" horiz-adv-x="648" 
d="M94 0v409h-82v110h82q0 111 43.5 153t153.5 42q1 0 82 -3v-120q-24 3 -46 3q-33 0 -48 -9.5t-15 -42.5v-23h102v-110h-102v-409h-170zM585 714v-130h-170v130h170zM415 0v519h170v-519h-170z" />
    <glyph glyph-name="fl" unicode="&#xfb02;" horiz-adv-x="648" 
d="M585 714v-714h-170v714h170zM94 0v409h-82v110h82q0 111 43.5 153t153.5 42q1 0 82 -3v-120q-24 3 -46 3q-33 0 -48 -9.5t-15 -42.5v-23h102v-110h-102v-409h-170z" />
    <glyph glyph-name="commaaccent.alt" horiz-adv-x="316" 
d="M247 714v-105h-154v81q0 103 140 103v-42q-27 -3 -39 -11t-16 -26h69z" />
    <glyph glyph-name="caron.alt" 
d="M130 714h157l-88 -149h-104z" />
    <glyph glyph-name="grave.cap" 
d="M145 911l97 -149h-120l-157 149h180z" />
    <glyph glyph-name="acute.cap" 
d="M142 911h180l-157 -149h-120z" />
    <glyph glyph-name="circumflex.cap" 
d="M148 842l-60 -80h-128l112 149h152l112 -149h-128z" />
    <glyph glyph-name="caron.cap" 
d="M224 762h-152l-112 149h128l60 -80l60 80h128z" />
    <glyph glyph-name="tilde.cap" 
d="M267 904h71q-7 -56 -36.5 -91.5t-82.5 -35.5q-33 0 -81 18t-64 18q-31 0 -44 -45h-71q7 54 39 95t82 41q31 0 80 -20q48 -21 65 -21q30 0 42 41z" />
    <glyph glyph-name="dieresis.cap" 
d="M-33 774v125h150v-125h-150zM330 774h-150v125h150v-125z" />
    <glyph glyph-name="macron.cap" 
d="M311 793h-325v86h325v-86z" />
    <glyph glyph-name="breve.cap" 
d="M-26 913h71q10 -68 103 -68t103 68h71q0 -69 -49 -111.5t-125 -42.5t-125 42.5t-49 111.5z" />
    <glyph glyph-name="ring.cap" 
d="M148 794q22 0 37 15t15 37q0 23 -15 37.5t-37 14.5t-37 -14.5t-15 -37.5q0 -22 15 -37t37 -15zM148 742q-46 -3 -77.5 29t-29.5 75q0 47 30.5 75.5t76.5 28.5q47 0 77 -28.5t30 -75.5q0 -45 -30.5 -74.5t-76.5 -29.5z" />
    <glyph glyph-name="hungarumlaut.cap" 
d="M229 911h125l-120 -149h-86zM64 911h125l-120 -149h-86z" />
    <glyph glyph-name="dotaccent.cap" 
d="M223 774h-150v125h150v-125z" />
    </font>
</defs>
</svg>
